<svg width="253" height="424" viewBox="0 0 253 424" fill="none" xmlns="http://www.w3.org/2000/svg">
<path d="M157.033 186.833C157.033 186.833 193.367 204.512 202.937 213.553C202.937 213.553 201.872 264.065 198.151 297.563C195.802 318.715 187.517 356.228 187.517 356.228L210.382 423.047H42.3592L60.2608 359.063C60.2608 359.063 51.3933 325.656 51.9306 287.458C52.4617 249.708 43.2464 205.22 43.2464 205.22L91.2784 182.71L157.033 186.833Z" fill="#FCDDBC"/>
<path d="M47.853 203.45C47.853 203.45 28.0021 207.351 15.5963 253.077C3.18848 298.806 9.91821e-05 328.58 9.91821e-05 328.58C9.91821e-05 328.58 67.3499 342.761 67.3499 341.696C67.3499 340.634 58.1325 220.467 58.1325 220.467L47.853 203.45Z" fill="#FCDDBC"/>
<path d="M188.228 203.094C188.228 203.094 220.84 220.108 233.246 248.822C245.654 277.537 245.654 325.036 245.654 325.036L178.302 338.862L188.228 203.094Z" fill="#FCDDBC"/>
<path d="M85.9594 186.161C85.9594 186.161 92.23 213.907 123.587 213.907C154.942 213.907 157.033 186.161 157.033 186.161C157.033 186.161 152.851 181.894 148.671 171.223C146.016 164.457 143.363 153.382 141.795 146.209C140.874 142.069 140.31 139.21 140.31 139.21H102.684C102.684 139.21 102.183 141.792 101.429 145.932C100.635 150.223 99.5689 156.177 98.5027 162.687C96.4118 175.49 85.9594 186.161 85.9594 186.161Z" fill="#F7A9A8"/>
<path d="M101.429 145.932C103.038 151.183 105.86 156.029 109.644 159.933C111.171 161.512 112.864 162.943 114.807 163.903C121.392 167.147 129.647 164.203 134.666 158.803C137.99 155.216 140.143 150.779 141.795 146.211C141.94 145.785 142.088 145.381 142.232 144.954C143.028 142.607 144.427 140.364 142.442 139.191C141.251 138.487 137.446 139.062 135.189 139.212C134.729 139.256 134.331 139.277 134.039 139.256C133.914 139.256 133.769 139.235 133.537 139.212H102.684C102.684 139.21 102.18 141.792 101.429 145.932Z" fill="#EF798A"/>
<path d="M81.4904 155.183C85.9762 160.366 90.6578 165.96 91.7136 172.855C92.151 175.717 91.8615 178.859 90.1538 181.146C88.7148 183.077 86.3927 184.247 85.3098 186.417C83.9041 189.237 85.1182 192.785 87.1133 195.185C89.1084 197.584 91.7844 199.254 93.9795 201.455C99.1192 206.603 101.27 214.771 99.3754 221.935C98.8131 224.057 97.8967 226.131 96.3827 227.664C94.4272 229.651 91.7137 230.532 89.2188 231.688C86.7239 232.841 84.179 234.564 83.373 237.283C82.7129 239.514 83.373 241.9 83.6521 244.216C84.1415 248.261 83.3938 252.524 81.2363 255.92C79.0746 259.317 75.4406 261.745 71.5399 261.989C64.8299 262.407 58.801 256.676 52.0951 257.153C47.9342 257.449 44.2293 260.11 40.0975 260.702C37.3278 261.097 34.4392 260.514 32.0131 259.069C30.1596 257.967 28.5227 256.278 27.9479 254.133C27.2898 251.68 28.0999 249.042 27.7251 246.524C27.2565 243.36 25.0261 240.847 23.5767 238.023C21.2046 233.406 20.9755 227.654 22.9706 222.845C24.8637 218.282 28.6498 214.446 29.0975 209.496C29.4515 205.606 27.6397 201.884 27.0733 198.021C25.8758 189.845 31.0988 181.169 38.6752 178.741C42.4134 177.543 46.6534 177.664 49.8543 175.321C51.3933 174.195 52.547 172.585 53.5113 170.9C55.6875 167.095 57.0016 162.83 58.8364 158.834C60.6711 154.839 63.1972 150.951 66.9583 148.894C70.7194 146.836 75.93 147.167 78.6019 150.612" fill="#2D2227"/>
<path d="M80.6073 153.534C79.4827 153.843 78.2956 153.568 77.1648 153.291C74.0452 152.531 70.9276 151.77 67.81 151.008C66.9978 150.81 66.1231 150.571 65.6108 149.886C65.0443 149.126 65.1006 148.063 65.2047 147.106C65.7066 142.455 65.5421 136.699 70.6568 135.793C73.7161 135.25 77.6834 135.079 80.5844 136.426C85.8782 138.888 86.8924 151.81 80.6073 153.534Z" fill="#EF959D"/>
<path d="M127.842 0.714419C133.663 -0.984946 140 0.566557 145.498 3.08645C150.994 5.60634 155.996 9.07171 161.531 11.5062C165.228 13.1327 169.226 14.3385 172.315 16.8938C175.647 19.6511 177.573 23.7433 178.427 27.9126C179.375 32.5442 179.141 37.4486 180.989 41.8178C183.054 46.6972 187.436 50.248 190.491 54.6088C194.475 60.2921 196.133 67.4665 195.035 74.2577C194.175 79.5641 191.703 84.8017 192.647 90.0935C193.513 94.9563 197.166 99.0693 197.807 103.965C198.601 110.011 194.604 115.717 189.912 119.768C185.22 123.818 179.641 126.921 175.52 131.52C172.461 134.933 169.955 139.329 165.509 140.691C160.913 142.099 155.471 139.764 151.293 142.099C148.911 143.43 147.457 146.06 144.948 147.143C141.26 148.734 136.82 146.152 135.01 142.649C133.2 139.146 133.286 135.048 133.273 131.128C133.242 120.72 132.23 110.315 130.258 100.084C129.25 94.8584 127.986 89.627 128.015 84.3123C128.046 78.6394 129.547 73.0853 130.66 67.5165C132.286 59.3696 133.032 50.652 129.699 43.0111C127.742 38.5211 124.468 34.6434 122.671 30.0909C118.883 20.4966 113.891 4.78789 127.842 0.714419Z" fill="#2D2227"/>
<path d="M111.135 0.71393C105.315 -0.985434 98.9775 0.566069 93.4795 3.08596C87.9837 5.60585 82.9814 9.07122 77.4459 11.5057C73.7494 13.1322 69.7509 14.338 66.6625 16.8933C63.3304 19.6506 61.404 23.7428 60.5502 27.9121C59.6026 32.5437 59.8379 37.4481 57.9886 41.8173C55.9227 46.6967 51.541 50.2475 48.4859 54.6084C44.502 60.2916 42.8443 67.466 43.9418 74.2573C44.8019 79.5636 47.2739 84.8012 46.3305 90.093C45.4641 94.9558 41.8113 99.0688 41.1699 103.965C40.3765 110.011 44.3729 115.717 49.0649 119.767C53.7569 123.818 59.336 126.921 63.4574 131.519C66.5167 134.932 69.022 139.329 73.4682 140.691C78.0644 142.099 83.5062 139.764 87.6838 142.099C90.0662 143.429 91.5198 146.06 94.0293 147.142C97.7175 148.734 102.158 146.151 103.967 142.648C105.777 139.145 105.692 135.047 105.704 131.128C105.735 120.719 106.747 110.315 108.72 100.083C109.728 94.8579 110.992 89.6265 110.963 84.3118C110.931 78.639 109.43 73.0848 108.318 67.516C106.691 59.3691 105.946 50.6515 109.278 43.0106C111.235 38.5206 114.509 34.6429 116.306 30.0904C120.095 20.4961 125.086 4.78741 111.135 0.71393Z" fill="#2D2227"/>
<path d="M72.45 107.906C72.5916 108.545 72.7686 109.22 72.9477 109.861C77.2482 125.751 87.8067 141.037 102.347 148.895C117.812 157.25 136.509 153.73 149.38 142.106C159.832 132.649 166.727 118.856 169.82 104.53C171.455 97.2411 172.061 89.7772 171.669 82.7027C170.355 58.6721 157.806 32.1175 134.308 23.4082C128.479 21.2382 121.973 20.1011 115.503 20.2428C107.822 20.4198 100.217 22.4128 93.9586 26.6779C85.0702 32.7214 78.7434 41.9284 75.0823 51.9892C68.7867 69.264 68.1474 90.0604 72.45 107.906Z" fill="#F7A9A8"/>
<path d="M73.683 91.0724C72.7604 87.1489 66.569 82.3694 63.5805 81.2969C54.7547 78.1293 49.542 90.1853 51.6038 98.8174C53.376 106.231 58.9073 113.206 65.1112 115.919C67.0917 116.786 80.0015 117.96 80.0993 118.377C80.0993 118.377 73.7017 91.1516 73.683 91.0724Z" fill="#F7A9A8"/>
<path d="M70.6028 94.0822C69.8448 91.1541 68.4953 88.251 66.1149 86.3851C63.7345 84.5191 60.1588 83.961 57.6681 85.677C56.1728 86.71 55.2377 88.4156 54.8399 90.1899C54.4422 91.9642 54.538 93.8115 54.7671 95.6129C55.5126 101.509 57.8805 107.477 62.5558 111.145C65.0903 113.133 68.5536 114.358 71.5566 113.194" stroke="#2D2227" stroke-width="0.4071" stroke-miterlimit="10" stroke-linecap="round" stroke-linejoin="round"/>
<path d="M64.8631 85.7021C67.6329 94.4905 68.0556 104.008 66.0751 113.007" stroke="#2D2227" stroke-width="0.4071" stroke-miterlimit="10" stroke-linecap="round" stroke-linejoin="round"/>
<path d="M170.028 88.9904C170.951 85.0669 177.142 80.2874 180.131 79.2149C188.956 76.0473 194.171 88.1032 192.107 96.7354C190.335 104.149 184.804 111.124 178.6 113.837C176.619 114.704 163.71 115.878 163.612 116.295C163.612 116.295 170.009 89.0695 170.028 88.9904Z" fill="#F7A9A8"/>
<path d="M173.108 91.9997C173.866 89.0716 175.216 86.1685 177.596 84.3026C179.976 82.4366 183.552 81.8785 186.043 83.5945C187.538 84.6274 188.473 86.3331 188.871 88.1074C189.267 89.8817 189.173 91.7289 188.944 93.5304C188.198 99.4261 185.831 105.395 181.155 109.062C178.621 111.051 175.157 112.275 172.154 111.111" stroke="#2D2227" stroke-width="0.4071" stroke-miterlimit="10" stroke-linecap="round" stroke-linejoin="round"/>
<path d="M178.846 83.6196C176.076 92.408 175.653 101.925 177.632 110.924" stroke="#2D2227" stroke-width="0.4071" stroke-miterlimit="10" stroke-linecap="round" stroke-linejoin="round"/>
<path d="M139.958 89.0881C137.898 89.0881 136.228 87.4182 136.228 85.3583C136.228 83.2983 137.898 81.6284 139.958 81.6284C142.018 81.6284 143.688 83.2983 143.688 85.3583C143.688 87.4182 142.018 89.0881 139.958 89.0881Z" fill="#2D2227"/>
<path d="M99.5187 89.9382C97.4588 89.9382 95.7889 88.2683 95.7889 86.2084C95.7889 84.1484 97.4588 82.4785 99.5187 82.4785C101.579 82.4785 103.249 84.1484 103.249 86.2084C103.249 88.2683 101.579 89.9382 99.5187 89.9382Z" fill="#2D2227"/>
<path d="M148.051 66.5799C151.245 67.4046 154.784 68.6958 155.706 71.3594C156.05 72.3527 155.914 73.5398 155.023 74.2895C154.078 75.083 152.595 75.1746 151.266 75.1454C148.696 75.085 146.153 74.7581 143.621 74.4311C139.985 73.9625 136.351 73.494 132.717 73.0254C130.93 72.7963 128.754 72.2611 128.481 70.7804C128.371 70.1785 128.631 69.5663 128.972 69.0206C132.706 63.0583 142.132 65.0555 148.051 66.5799Z" fill="#2D2227"/>
<path d="M89.3434 67.8812C86.2903 68.7163 82.9062 70.0221 82.0232 72.6919C81.6941 73.6874 81.8232 74.8744 82.6729 75.6179C83.5768 76.4072 84.9929 76.4926 86.2632 76.4572C88.7207 76.3884 91.1489 76.0511 93.5709 75.7137C97.0446 75.2305 100.518 74.7474 103.994 74.2642C105.702 74.0268 107.782 73.4833 108.045 72.0026C108.151 71.4007 107.903 70.7905 107.576 70.247C104.013 64.2971 95.0058 66.3318 89.3434 67.8812Z" fill="#2D2227"/>
<path d="M122.806 75.542C119.628 83.3516 119.489 92.3565 122.425 100.26C123.322 102.674 124.516 105.173 124.041 107.703C123.549 110.323 121.396 112.264 119.37 113.994" stroke="#2D2227" stroke-width="0.4071" stroke-miterlimit="10" stroke-linecap="round" stroke-linejoin="round"/>
<path d="M166.25 102.159C166.25 102.159 146.312 91.2587 118.395 91.7898C90.4785 92.3208 69.7425 102.956 69.7425 102.956C69.7425 102.956 78.2497 151.609 119.724 154.8C161.198 157.99 166.25 102.159 166.25 102.159Z" fill="#7D82B8"/>
<path d="M106.989 119.423C108.301 121.464 111.279 122.068 114.569 121.256C114.569 121.256 114.569 121.256 114.59 121.256C115.34 121.068 116.09 120.798 116.86 120.444C117.631 120.131 118.401 119.715 119.151 119.236C119.63 118.944 120.067 118.611 120.484 118.278C121.067 117.84 121.588 117.361 122.067 116.882C124.857 114.029 125.94 110.593 124.482 108.302C123.025 105.97 119.359 105.512 115.527 106.886C114.861 107.136 114.195 107.428 113.549 107.782C113.132 107.969 112.716 108.219 112.32 108.469C111.529 108.99 110.8 109.531 110.134 110.135C109.488 110.718 108.905 111.343 108.405 111.988C106.364 114.571 105.719 117.424 106.989 119.423Z" fill="#FCDDBC"/>
<path d="M113.549 107.783C113.757 108.762 114.111 109.615 114.424 110.303C115.819 113.364 117.901 116.092 120.484 118.279C121.067 117.841 121.588 117.362 122.067 116.883C119.609 114.905 117.631 112.323 116.319 109.449C115.881 108.491 115.611 107.637 115.527 106.887C114.861 107.137 114.194 107.429 113.549 107.783Z" fill="#382B31"/>
<path d="M108.405 111.988C108.592 112.655 108.842 113.259 109.071 113.758C110.363 116.591 112.237 119.152 114.569 121.256C114.569 121.256 114.569 121.256 114.59 121.256C115.34 121.068 116.09 120.797 116.86 120.443C114.34 118.444 112.32 115.841 110.967 112.905C110.488 111.842 110.217 110.926 110.133 110.135C109.488 110.718 108.905 111.343 108.405 111.988Z" fill="#382B31"/>
<path d="M113.172 107.872C113.501 105.198 112.828 102.232 110.75 100.518C110.14 100.014 109.169 99.66 108.609 100.222C108.222 100.61 108.249 101.237 108.328 101.778C108.569 103.417 109.055 105.021 109.763 106.52C108.609 105.239 106.983 104.398 105.271 104.194C104.942 104.154 104.594 104.142 104.3 104.29C103.907 104.489 103.692 104.95 103.686 105.393C103.68 105.835 103.844 106.262 104.04 106.657C105.071 108.73 107.097 110.277 109.367 110.729" stroke="white" stroke-width="0.15" stroke-miterlimit="10" stroke-linecap="round" stroke-linejoin="round"/>
<path d="M86.4757 137.83C84.6867 139.469 84.5993 142.507 85.9571 145.61C85.9571 145.61 85.9571 145.61 85.9592 145.631C86.2716 146.337 86.6652 147.031 87.1462 147.731C87.5857 148.436 88.1271 149.124 88.7269 149.782C89.0955 150.205 89.4974 150.577 89.8973 150.931C90.4263 151.431 90.9865 151.864 91.5425 152.254C94.8288 154.518 98.3983 155.001 100.408 153.176C102.459 151.344 102.286 147.653 100.281 144.111C99.9206 143.497 99.5208 142.889 99.0626 142.314C98.8065 141.935 98.4899 141.568 98.1775 141.22C97.5298 140.529 96.8718 139.902 96.1637 139.35C95.4785 138.813 94.7642 138.344 94.0416 137.961C91.151 136.389 88.2292 136.239 86.4757 137.83Z" fill="#FCDDBC"/>
<path d="M99.0626 142.316C98.1337 142.687 97.3528 143.183 96.728 143.608C93.9499 145.503 91.6133 148.018 89.8993 150.936C90.4283 151.436 90.9885 151.869 91.5445 152.259C93.0752 149.501 95.2848 147.113 97.8942 145.33C98.7627 144.736 99.5582 144.324 100.283 144.116C99.9206 143.499 99.5207 142.891 99.0626 142.316Z" fill="#382B31"/>
<path d="M94.0416 137.96C93.4168 138.258 92.8649 138.608 92.4109 138.918C89.8411 140.672 87.6356 142.954 85.9571 145.61C85.9571 145.61 85.9571 145.61 85.9592 145.631C86.2716 146.336 86.6652 147.03 87.1462 147.73C88.6873 144.908 90.9094 142.473 93.573 140.641C94.5372 139.989 95.3952 139.566 96.1616 139.35C95.4785 138.812 94.7642 138.344 94.0416 137.96Z" fill="#382B31"/>
<path d="M98.9106 141.96C101.601 141.829 104.411 140.66 105.746 138.321C106.137 137.634 106.32 136.618 105.673 136.162C105.225 135.847 104.613 135.979 104.092 136.149C102.518 136.666 101.018 137.416 99.6645 138.369C100.729 137.016 101.283 135.268 101.193 133.548C101.176 133.219 101.128 132.874 100.933 132.607C100.67 132.253 100.179 132.122 99.7415 132.19C99.3042 132.257 98.9126 132.495 98.5545 132.755C96.6885 134.123 95.5077 136.383 95.4494 138.696" stroke="white" stroke-width="0.15" stroke-miterlimit="10" stroke-linecap="round" stroke-linejoin="round"/>
<path d="M152.012 138.627C153.794 140.273 156.829 140.106 159.811 138.492C159.811 138.492 159.811 138.492 159.832 138.488C160.511 138.117 161.167 137.665 161.825 137.13C162.491 136.634 163.132 136.037 163.736 135.385C164.126 134.983 164.465 134.55 164.784 134.123C165.238 133.552 165.621 132.957 165.965 132.373C167.947 128.908 168.131 125.311 166.142 123.462C164.145 121.571 160.481 122.052 157.118 124.347C156.535 124.757 155.964 125.207 155.427 125.711C155.071 125.997 154.731 126.344 154.411 126.686C153.776 127.39 153.207 128.098 152.716 128.85C152.239 129.577 151.83 130.326 151.51 131.078C150.185 134.089 150.279 137.011 152.012 138.627Z" fill="#FCDDBC"/>
<path d="M155.427 125.708C155.875 126.604 156.433 127.341 156.908 127.926C159.03 130.538 161.731 132.654 164.782 134.12C165.236 133.549 165.619 132.954 165.963 132.371C163.087 131.075 160.521 129.074 158.528 126.623C157.864 125.804 157.387 125.048 157.118 124.342C156.535 124.753 155.964 125.202 155.427 125.708Z" fill="#382B31"/>
<path d="M151.51 131.076C151.858 131.673 152.253 132.194 152.599 132.621C154.563 135.037 157.022 137.044 159.809 138.491C159.809 138.491 159.809 138.491 159.83 138.487C160.508 138.117 161.164 137.665 161.823 137.129C158.88 135.83 156.268 133.82 154.221 131.317C153.49 130.409 152.997 129.591 152.718 128.847C152.239 129.572 151.83 130.324 151.51 131.076Z" fill="#382B31"/>
<path d="M155.085 125.888C154.731 123.219 153.332 120.515 150.889 119.38C150.17 119.047 149.144 118.949 148.742 119.632C148.465 120.105 148.65 120.705 148.863 121.209C149.508 122.735 150.381 124.164 151.445 125.436C150.006 124.489 148.219 124.085 146.511 124.318C146.184 124.362 145.845 124.439 145.597 124.658C145.266 124.951 145.176 125.449 145.281 125.88C145.385 126.311 145.653 126.682 145.943 127.015C147.463 128.76 149.812 129.749 152.124 129.612" stroke="white" stroke-width="0.15" stroke-miterlimit="10" stroke-linecap="round" stroke-linejoin="round"/>
<path d="M127.044 98.8273C127.044 98.9939 127.065 99.1813 127.086 99.3687C127.148 100.16 127.336 100.972 127.648 101.722C128.502 103.825 130.105 105.554 131.855 107.012C131.917 107.074 132.001 107.116 132.063 107.178C132.146 107.241 132.209 107.303 132.292 107.345C134.562 109.157 137.103 110.573 139.81 111.572C139.977 111.656 140.143 111.718 140.289 111.76C141.997 112.385 143.767 112.822 145.558 113.093C146.453 113.218 147.328 113.301 148.244 113.301C148.432 113.322 148.598 113.322 148.786 113.322C149.91 113.301 151.014 113.176 152.097 112.843C154.201 112.239 156.158 110.885 157.137 108.928C157.47 108.22 157.699 107.491 157.783 106.762C157.824 106.574 157.845 106.408 157.845 106.241C157.991 104.096 157.262 101.847 156.137 99.9518C156.054 99.8269 155.971 99.6811 155.887 99.5562C155.783 99.4104 155.7 99.2438 155.575 99.098C153.909 96.7031 151.785 95.2453 149.348 93.8291C149.202 93.7458 149.036 93.6625 148.89 93.5584C148.39 93.2877 147.89 92.9961 147.37 92.7046C146.162 92.0173 144.954 91.58 143.704 91.3301C143.538 91.2884 143.371 91.2468 143.184 91.2259C141.08 90.8719 138.894 90.9969 136.645 91.3092C136.457 91.3509 136.291 91.3717 136.103 91.4134H136.082C135.937 91.4342 135.77 91.455 135.603 91.4758C132.834 91.9132 129.793 92.6421 128.148 94.9329C127.336 96.0575 127.002 97.4319 127.044 98.8273Z" fill="#E5C3D1"/>
<path d="M145.579 104.18C145.641 104.367 145.704 104.555 145.745 104.742C146.662 107.554 147.495 110.448 148.244 113.301C148.432 113.322 148.598 113.322 148.786 113.322C148.015 110.386 147.161 107.429 146.224 104.513C146.183 104.346 146.141 104.18 146.079 104.013L145.579 104.18Z" fill="white"/>
<path d="M139.81 111.573C139.977 111.656 140.143 111.719 140.289 111.761C140.497 111.407 140.643 111.032 140.768 110.657L142.934 104.638L143.33 103.555L142.83 103.389L142.434 104.492L140.268 110.49C140.143 110.865 139.997 111.24 139.81 111.573Z" fill="white"/>
<path d="M131.855 107.012C131.917 107.075 132 107.116 132.063 107.179C132.146 107.241 132.209 107.304 132.292 107.345L139.831 103.118L140.601 102.68L140.351 102.222L139.414 102.743L131.855 107.012Z" fill="white"/>
<path d="M127.044 98.8281C127.044 98.9947 127.065 99.1822 127.086 99.3696C130.814 99.8902 134.604 100.244 138.352 100.453L139.477 100.515L139.498 99.9944C139.144 99.9735 138.811 99.9527 138.456 99.9319C134.666 99.7445 130.834 99.3696 127.044 98.8281Z" fill="white"/>
<path d="M136.103 91.4147L137.582 93.8096C138.54 95.3507 139.519 96.9334 140.185 98.6203C140.248 98.7453 140.31 98.8702 140.352 98.9952L140.831 98.8286C140.789 98.7244 140.747 98.6203 140.706 98.5162C140.018 96.746 138.998 95.1008 138.019 93.518L136.645 91.3105C136.457 91.3522 136.291 91.373 136.103 91.4147Z" fill="white"/>
<path d="M143.163 100.744H143.684C143.705 100.036 143.705 99.3277 143.705 98.5988C143.767 96.183 143.746 93.7464 143.705 91.3307C143.538 91.289 143.371 91.2474 143.184 91.2266C143.226 93.6215 143.246 96.0372 143.184 98.453C143.184 99.2236 143.184 99.9733 143.163 100.744Z" fill="white"/>
<path d="M144.475 101.285L144.808 101.66C145.35 101.181 145.683 100.577 145.974 99.952C146.037 99.8271 146.079 99.723 146.141 99.598L146.183 99.4939C147.099 97.5363 148.161 95.6412 149.348 93.8293C149.202 93.746 149.036 93.6627 148.89 93.5586C147.703 95.3912 146.641 97.3072 145.725 99.2648L145.662 99.3689C145.62 99.4522 145.579 99.5355 145.537 99.6188C145.266 100.244 144.954 100.848 144.475 101.285Z" fill="white"/>
<path d="M146.766 101.244L146.891 101.764L147.182 101.702L154.326 99.9525C154.846 99.8275 155.367 99.6818 155.887 99.5568C155.783 99.411 155.7 99.2444 155.575 99.0986C155.138 99.2028 154.7 99.3277 154.263 99.4318L146.974 101.202L146.766 101.244Z" fill="white"/>
<path d="M145.558 103.368C146.078 103.472 146.599 103.576 147.099 103.701C150.702 104.493 154.284 105.513 157.782 106.763C157.824 106.575 157.845 106.409 157.845 106.242C154.409 104.992 150.868 103.972 147.307 103.222C146.766 103.097 146.203 102.972 145.662 102.868L145.558 103.368Z" fill="white"/>
<path d="M146.86 100.986C147.332 101.775 147.57 102.789 147.155 103.612C146.866 104.185 146.291 104.582 145.675 104.764C145.058 104.945 144.398 104.926 143.763 104.832C142.324 104.62 140.943 104.016 139.81 103.102C139.271 102.666 138.775 102.146 138.513 101.502C138.25 100.859 138.257 100.078 138.663 99.5135C139.142 98.8429 140.031 98.6305 140.845 98.5014C142.063 98.3056 143.207 98.2411 144.294 98.8596C145.327 99.4469 146.222 99.9238 146.86 100.986Z" fill="#FCDDBC"/>
<path d="M116.915 146.105C117.052 146.199 117.219 146.286 117.385 146.376C118.074 146.77 118.851 147.074 119.645 147.24C121.863 147.721 124.195 147.371 126.386 146.749C126.473 146.732 126.555 146.688 126.642 146.672C126.74 146.638 126.827 146.622 126.909 146.576C129.685 145.722 132.288 144.425 134.639 142.752C134.802 142.663 134.947 142.561 135.064 142.463C136.543 141.405 137.902 140.191 139.135 138.864C139.743 138.196 140.308 137.519 140.824 136.763C140.947 136.619 141.041 136.482 141.147 136.328C141.764 135.386 142.282 134.405 142.619 133.322C143.309 131.244 143.294 128.864 142.228 126.952C141.832 126.277 141.36 125.677 140.803 125.196C140.672 125.057 140.545 124.944 140.408 124.851C138.719 123.52 136.451 122.853 134.252 122.714C134.102 122.714 133.933 122.699 133.783 122.697C133.604 122.699 133.419 122.676 133.229 122.697C130.312 122.722 127.91 123.655 125.366 124.867C125.216 124.94 125.053 125.032 124.884 125.092C124.378 125.353 123.856 125.6 123.323 125.867C122.073 126.475 121.032 127.227 120.12 128.118C119.99 128.233 119.863 128.345 119.741 128.489C118.262 130.026 117.133 131.902 116.121 133.935C116.05 134.114 115.973 134.262 115.902 134.441L115.892 134.457C115.827 134.589 115.75 134.739 115.673 134.889C114.472 137.423 113.36 140.345 114.324 142.996C114.792 144.304 115.738 145.353 116.915 146.105Z" fill="#E5C3D1"/>
<path d="M131.788 133.818C131.978 133.872 132.169 133.926 132.346 133.997C135.185 134.826 138.044 135.771 140.824 136.76C140.947 136.617 141.041 136.479 141.147 136.325C138.288 135.305 135.364 134.343 132.428 133.472C132.267 133.412 132.107 133.353 131.934 133.31L131.788 133.818Z" fill="white"/>
<path d="M134.639 142.753C134.802 142.663 134.947 142.561 135.064 142.463C134.889 142.092 134.662 141.761 134.423 141.445L130.674 136.263L130.003 135.326L129.583 135.645L130.272 136.594L134.004 141.765C134.241 142.078 134.468 142.411 134.639 142.753Z" fill="white"/>
<path d="M126.386 146.748C126.474 146.731 126.555 146.688 126.642 146.671C126.74 146.638 126.828 146.621 126.909 146.575L127.669 137.966L127.742 137.083L127.223 137.031L127.125 138.097L126.386 146.748Z" fill="white"/>
<path d="M116.914 146.105C117.052 146.199 117.218 146.286 117.385 146.376C119.917 143.591 122.348 140.661 124.632 137.683L125.32 136.79L124.901 136.479C124.684 136.761 124.478 137.023 124.262 137.304C121.969 140.328 119.499 143.281 116.914 146.105Z" fill="white"/>
<path d="M115.9 134.443L118.712 134.572C120.526 134.651 122.383 134.735 124.153 135.137C124.291 135.155 124.43 135.174 124.557 135.209L124.689 134.72C124.578 134.695 124.47 134.672 124.36 134.647C122.51 134.216 120.576 134.131 118.718 134.047L116.119 133.937C116.05 134.116 115.971 134.264 115.9 134.443Z" fill="white"/>
<path d="M127.588 133.875L127.881 133.446C127.309 133.029 126.724 132.629 126.122 132.219C124.162 130.805 122.138 129.447 120.12 128.121C119.991 128.235 119.864 128.348 119.741 128.491C121.742 129.807 123.748 131.153 125.709 132.567C126.342 133.002 126.963 133.425 127.588 133.875Z" fill="white"/>
<path d="M128.775 133.098L129.272 133.036C129.183 132.317 128.873 131.703 128.521 131.109C128.452 130.987 128.389 130.895 128.323 130.772L128.26 130.678C127.161 128.817 126.194 126.871 125.368 124.87C125.218 124.943 125.055 125.035 124.887 125.095C125.73 127.109 126.713 129.066 127.815 130.926L127.865 131.037C127.91 131.118 127.954 131.199 128 131.28C128.36 131.857 128.683 132.457 128.775 133.098Z" fill="white"/>
<path d="M130.033 131.182L130.532 131.371L130.645 131.096L133.229 124.211C133.419 123.709 133.594 123.199 133.783 122.697C133.604 122.699 133.419 122.676 133.229 122.697C133.067 123.118 132.925 123.549 132.763 123.97L130.114 130.988L130.033 131.182Z" fill="white"/>
<path d="M131.105 133.379C131.484 133.008 131.863 132.637 132.248 132.294C134.935 129.765 137.796 127.383 140.801 125.198C140.67 125.059 140.543 124.946 140.406 124.853C137.436 126.985 134.595 129.332 131.969 131.85C131.561 132.227 131.14 132.62 130.749 133.01L131.105 133.379Z" fill="white"/>
<path d="M129.872 130.96C130.79 131.014 131.761 131.393 132.207 132.197C132.517 132.761 132.523 133.457 132.323 134.069C132.123 134.679 131.738 135.215 131.301 135.687C130.314 136.756 129.037 137.555 127.644 137.976C126.979 138.176 126.269 138.291 125.592 138.145C124.916 137.999 124.272 137.551 124.035 136.899C123.751 136.125 124.078 135.271 124.428 134.525C124.955 133.409 125.544 132.428 126.669 131.878C127.735 131.356 128.635 130.885 129.872 130.96Z" fill="#FCDDBC"/>
<path d="M74.0428 99.8664C73.9657 100.014 73.8991 100.191 73.8324 100.366C73.5284 101.099 73.3222 101.907 73.2576 102.717C73.0556 104.977 73.6929 107.249 74.5842 109.344C74.6113 109.427 74.6675 109.502 74.6925 109.588C74.7383 109.682 74.7654 109.765 74.8216 109.842C76.0129 112.489 77.6268 114.911 79.5782 117.037C79.6886 117.187 79.8073 117.32 79.9197 117.422C81.1526 118.759 82.5271 119.957 83.9974 121.015C84.7367 121.535 85.4781 122.01 86.2923 122.429C86.4506 122.533 86.5964 122.608 86.7651 122.693C87.7751 123.189 88.8143 123.583 89.9306 123.78C92.0777 124.203 94.4372 123.893 96.2032 122.6C96.8238 122.123 97.359 121.577 97.7672 120.967C97.8901 120.819 97.9838 120.679 98.0609 120.534C99.1709 118.693 99.5499 116.358 99.4145 114.157C99.3979 114.009 99.3895 113.84 99.3729 113.69C99.3458 113.513 99.3479 113.328 99.3041 113.141C98.9168 110.248 97.6923 107.982 96.172 105.608C96.0804 105.469 95.97 105.316 95.8888 105.158C95.568 104.688 95.2557 104.202 94.9266 103.705C94.1665 102.54 93.2918 101.601 92.2943 100.808C92.1652 100.695 92.036 100.581 91.8778 100.477C90.168 99.2 88.1666 98.3129 86.0216 97.5631C85.8363 97.5152 85.678 97.4569 85.4927 97.409L85.4739 97.4007C85.3365 97.3528 85.1761 97.2945 85.0199 97.2362C82.3563 96.3594 79.3179 95.6201 76.8084 96.905C75.5672 97.5361 74.6425 98.6065 74.0428 99.8664Z" fill="#E5C3D1"/>
<path d="M88.0854 113.095C88.0542 113.288 88.0251 113.486 87.9772 113.67C87.5086 116.589 86.9275 119.544 86.2903 122.427C86.4486 122.531 86.5943 122.606 86.763 122.691C87.419 119.728 88.0105 116.706 88.5082 113.684C88.5478 113.517 88.5873 113.349 88.6061 113.172L88.0854 113.095Z" fill="white"/>
<path d="M79.5761 117.037C79.6865 117.187 79.8052 117.32 79.9176 117.422C80.2654 117.204 80.5653 116.937 80.8485 116.66L85.5239 112.295L86.3715 111.512L86.0028 111.135L85.1469 111.937L80.4799 116.283C80.1967 116.56 79.8947 116.825 79.5761 117.037Z" fill="white"/>
<path d="M74.5822 109.347C74.6092 109.43 74.6655 109.505 74.6904 109.59C74.7363 109.684 74.7633 109.767 74.8196 109.844L83.4559 109.528L84.341 109.49L84.3285 108.97L83.256 109.005L74.5822 109.347Z" fill="white"/>
<path d="M74.0428 99.8662C73.9658 100.014 73.8991 100.191 73.8325 100.366C76.9126 102.532 80.1218 104.579 83.3602 106.476L84.3327 107.045L84.5889 106.591C84.2828 106.41 83.9954 106.241 83.6913 106.06C80.403 104.163 77.1667 102.08 74.0428 99.8662Z" fill="white"/>
<path d="M85.4884 97.4116L85.7091 100.217C85.857 102.027 86.0049 103.88 85.8278 105.686C85.8278 105.825 85.8258 105.965 85.8049 106.096L86.3068 106.167C86.3172 106.054 86.3277 105.944 86.3401 105.831C86.538 103.943 86.3818 102.014 86.2339 100.159L86.0194 97.5657C85.832 97.5158 85.6737 97.4595 85.4884 97.4116Z" fill="white"/>
<path d="M87.5065 108.934L87.9709 109.172C88.3124 108.551 88.6352 107.922 88.9684 107.272C90.1284 105.152 91.2218 102.976 92.288 100.808C92.1589 100.696 92.0298 100.581 91.8715 100.477C90.8156 102.626 89.7306 104.784 88.5707 106.906C88.2187 107.593 87.8772 108.26 87.5065 108.934Z" fill="white"/>
<path d="M88.4248 110.015L88.5498 110.5C89.2495 110.321 89.8222 109.936 90.3679 109.513C90.4803 109.43 90.5657 109.357 90.6782 109.273L90.7636 109.201C92.4733 107.878 94.2831 106.677 96.1678 105.606C96.0762 105.467 95.9658 105.315 95.8846 105.156C93.9915 106.243 92.1714 107.464 90.4616 108.786L90.3595 108.849C90.2846 108.905 90.2096 108.959 90.1346 109.015C89.6057 109.45 89.0517 109.846 88.4248 110.015Z" fill="white"/>
<path d="M90.4825 111.025L90.3554 111.546L90.6428 111.625L97.7964 113.333C98.317 113.46 98.846 113.568 99.3666 113.693C99.3396 113.516 99.3417 113.331 99.2979 113.143C98.8627 113.037 98.4149 112.948 97.9797 112.839L90.6866 111.084L90.4825 111.025Z" fill="white"/>
<path d="M88.4373 112.362C88.8517 112.693 89.2682 113.024 89.6556 113.362C92.4983 115.711 95.2181 118.256 97.7609 120.965C97.8838 120.817 97.9775 120.678 98.0545 120.532C95.568 117.85 92.8856 115.326 90.0596 113.031C89.6348 112.672 89.1912 112.304 88.758 111.964L88.4373 112.362Z" fill="white"/>
<path d="M90.6823 110.84C90.7427 111.756 90.4886 112.768 89.7452 113.31C89.2245 113.689 88.5331 113.781 87.9021 113.658C87.2711 113.535 86.6921 113.22 86.1694 112.845C84.9865 112 84.0348 110.832 83.4434 109.501C83.1622 108.866 82.9602 108.176 83.0206 107.485C83.081 106.794 83.4454 106.1 84.0619 105.786C84.7949 105.409 85.6821 105.625 86.4651 105.881C87.6376 106.265 88.6851 106.727 89.3703 107.774C90.0221 108.77 90.6032 109.603 90.6823 110.84Z" fill="#FCDDBC"/>
<path d="M118.989 28.6636C119.202 30.7629 119.485 32.9204 120.561 34.7655C122.829 38.6453 127.817 40.0594 132.174 41.6504C139.379 44.2849 146.412 48.7415 149.263 55.5702C153.914 66.7181 146.25 80.8691 153.397 90.7508C155.436 93.5664 158.46 95.6115 160.632 98.3355C164.197 102.8 165.143 109.056 162.996 114.28C161.055 119.003 156.881 122.697 155.198 127.51C153.928 131.148 154.234 135.261 156.034 138.691C157.854 142.163 161.123 144.976 162.052 148.754C162.921 152.284 161.359 156.243 158.266 158.359C166.226 157.22 172.521 149.579 171.786 141.95C171.336 137.265 168.618 132.875 168.848 128.174C169.156 121.887 174.514 117.024 177.388 111.356C180.125 105.958 180.566 99.5434 178.594 93.8497C177.319 90.1698 175.081 86.7752 174.435 82.9496C173.477 77.2663 176.153 71.6788 177.528 66.0726C179.806 56.7656 178.288 46.4424 172.4 38.7015C170.205 35.8151 167.469 33.3369 165.199 30.5025C161.423 25.7918 159.018 20.2043 155.34 15.4228C151.271 10.1289 145.452 5.83051 138.705 4.49976C133.075 3.38976 124.264 4.75799 120.276 9.2459C116.24 13.7879 118.452 23.3406 118.989 28.6636Z" fill="#2D2227"/>
<path d="M120.043 28.6627C119.841 30.7619 119.57 32.9194 118.545 34.7645C116.388 38.6443 111.64 40.0584 107.493 41.6495C100.635 44.2839 93.94 48.7406 91.2285 55.5693C86.803 66.7172 94.0961 80.8681 87.2924 90.7498C85.3536 93.5655 82.4755 95.6105 80.4054 98.3345C77.013 102.8 76.1133 109.056 78.1563 114.279C80.0035 119.002 83.9749 122.696 85.5764 127.509C86.7864 131.147 86.4948 135.26 84.783 138.69C83.0503 142.162 79.9369 144.975 79.0559 148.753C78.2312 152.283 79.7161 156.242 82.6588 158.358C75.0845 157.219 69.093 149.578 69.7907 141.949C70.2217 137.264 72.8083 132.874 72.5875 128.173C72.2939 121.886 67.1937 117.023 64.4593 111.355C61.8561 105.957 61.4354 99.5424 63.3139 93.8487C64.528 90.1688 66.6564 86.7743 67.2708 82.9486C68.1829 77.2653 65.6339 71.6778 64.3281 66.0716C62.1581 56.7646 63.6034 46.4414 69.2075 38.7006C71.2963 35.8141 73.9016 33.3359 76.0633 30.5016C79.6557 25.7908 81.9465 20.2033 85.4452 15.4218C89.3188 10.1279 94.8563 5.82953 101.279 4.49878C106.635 3.38878 115.024 4.75702 118.818 9.24492C122.656 13.787 120.553 23.3397 120.043 28.6627Z" fill="#2D2227"/>
<path d="M55.6519 338.506L49.9811 391.678C49.9811 391.678 14.2798 391.562 9.92521 365.092C6.47025 344.09 9.1276 330.397 9.1276 330.397L55.6519 338.506Z" fill="#F7A9A8"/>
<path d="M55.2543 338.771L170.503 372.004L167.846 392.209C167.846 392.209 67.3519 395.222 45.4621 391.234C23.2163 387.182 21.6232 370.055 21.6232 370.055L26.9399 351.976L36.5114 338.86L55.2543 338.771Z" fill="#F7A9A8"/>
<path d="M170.503 372.004C170.503 372.004 201.343 378.562 208.432 375.725C215.521 372.891 230.41 381.752 234.31 384.587C238.209 387.423 252.743 414.717 250.261 417.554C247.778 420.39 233.246 394.512 228.993 394.158C224.739 393.804 217.296 399.829 202.051 399.121C186.809 398.413 167.846 392.209 167.846 392.209L170.503 372.004Z" fill="#F7A9A8"/>
<path d="M234.743 385.309C237.013 389.097 247.543 406.857 250.781 415.525C251.354 417.056 250.25 418.686 248.617 418.741C242.686 418.943 230.001 419.172 227.575 417.553C224.385 415.427 218.714 400.539 208.435 399.121C200.485 398.023 192.959 395.655 189.954 394.639C189.148 394.366 188.665 393.565 188.781 392.721L189.925 384.43C189.975 384.072 190.133 383.737 190.379 383.47L193.632 379.947C194.023 379.524 194.596 379.316 195.167 379.393L233.465 384.476C233.998 384.547 234.464 384.845 234.743 385.309Z" fill="#F7A9A8"/>
<path d="M233.246 418.617C233.246 418.617 226.157 401.425 219.953 396.46C213.749 391.498 213.749 391.498 213.749 391.498" stroke="#382B31" stroke-width="0.25" stroke-miterlimit="10" stroke-linecap="round" stroke-linejoin="round"/>
<path d="M240.866 418.441C240.866 418.441 235.372 402.312 228.814 395.577C222.256 388.842 219.776 387.778 219.776 387.778" stroke="#382B31" stroke-width="0.25" stroke-miterlimit="10" stroke-linecap="round" stroke-linejoin="round"/>
<path d="M247.426 418.44C247.426 418.44 242.818 402.667 235.729 393.981C228.64 385.297 226.511 384.232 226.511 384.232" stroke="#382B31" stroke-width="0.25" stroke-miterlimit="10" stroke-linecap="round" stroke-linejoin="round"/>
<path d="M188.227 260.166L192.126 328.58" stroke="#2D2227" stroke-width="0.25" stroke-miterlimit="10" stroke-linecap="round" stroke-linejoin="round"/>
<path d="M183.973 268.673L191.418 321.135" stroke="#2D2227" stroke-width="0.25" stroke-miterlimit="10" stroke-linecap="round" stroke-linejoin="round"/>
<path d="M59.8813 270.446L55.2039 338.77" stroke="#2D2227" stroke-width="0.252" stroke-miterlimit="10" stroke-linecap="round" stroke-linejoin="round"/>
<path d="M64.161 274.744L56.6742 318.086" stroke="#2D2227" stroke-width="0.252" stroke-miterlimit="10" stroke-linecap="round" stroke-linejoin="round"/>
<path d="M55.6038 333.129L0.353602 321.668" stroke="#2D2227" stroke-width="0.252" stroke-miterlimit="10" stroke-linecap="round" stroke-linejoin="round"/>
<path d="M164.551 288.261C165.309 308.502 162.995 328.852 157.716 348.405" stroke="#2D2227" stroke-width="0.25" stroke-miterlimit="10" stroke-linecap="round" stroke-linejoin="round"/>
<path d="M164.565 289.586C164.565 289.586 171.3 253.075 162.793 253.429C154.286 253.785 164.565 289.586 164.565 289.586Z" stroke="#2D2227" stroke-width="0.25" stroke-miterlimit="10" stroke-linecap="round" stroke-linejoin="round"/>
<path d="M164.211 308.552C164.211 308.552 158.715 275.585 152.159 278.598C145.602 281.61 164.211 308.552 164.211 308.552Z" stroke="#2D2227" stroke-width="0.25" stroke-miterlimit="10" stroke-linecap="round" stroke-linejoin="round"/>
<path d="M164.324 308.532C164.324 308.532 183.783 281.361 177.019 278.845C170.255 276.329 164.324 308.532 164.324 308.532Z" stroke="#2D2227" stroke-width="0.25" stroke-miterlimit="10" stroke-linecap="round" stroke-linejoin="round"/>
<path d="M161.729 331.06C161.729 331.06 157.83 304.829 153.045 305.185C148.259 305.541 161.729 331.06 161.729 331.06Z" stroke="#2D2227" stroke-width="0.25" stroke-miterlimit="10" stroke-linecap="round" stroke-linejoin="round"/>
<path d="M161.333 331.348C161.333 331.348 179.074 311.636 175.753 308.171C172.431 304.708 161.333 331.348 161.333 331.348Z" stroke="#2D2227" stroke-width="0.25" stroke-miterlimit="10" stroke-linecap="round" stroke-linejoin="round"/>
<path d="M124.332 330.353C124.509 329.822 125.927 301.641 127.877 289.056" stroke="#2D2227" stroke-width="0.25" stroke-miterlimit="10" stroke-linecap="round" stroke-linejoin="round"/>
<path d="M126.815 295.967C126.815 295.967 140.284 270.623 131.954 267.609C123.624 264.596 126.815 295.967 126.815 295.967Z" stroke="#2D2227" stroke-width="0.25" stroke-miterlimit="10" stroke-linecap="round" stroke-linejoin="round"/>
<path d="M125.04 317.414C125.04 317.414 119.19 302.439 113.786 295.17" stroke="#2D2227" stroke-width="0.25" stroke-miterlimit="10" stroke-linecap="round" stroke-linejoin="round"/>
<path d="M117.597 300.93C117.597 300.93 109.621 275.232 103.417 278.776C97.2151 282.321 117.597 300.93 117.597 300.93Z" stroke="#2D2227" stroke-width="0.25" stroke-miterlimit="10" stroke-linecap="round" stroke-linejoin="round"/>
<path d="M125.174 320.427C125.174 320.427 133.949 311.349 137.596 304.766" stroke="#2D2227" stroke-width="0.2077" stroke-miterlimit="10" stroke-linecap="round" stroke-linejoin="round"/>
<path d="M134.545 309.627C134.545 309.627 151.26 294.78 146.451 291.301C141.642 287.821 134.545 309.627 134.545 309.627Z" stroke="#2D2227" stroke-width="0.2077" stroke-miterlimit="10" stroke-linecap="round" stroke-linejoin="round"/>
<path d="M104.969 339.303C104.969 339.303 89.1496 304.477 86.6234 282.277" stroke="#2D2227" stroke-width="0.25" stroke-miterlimit="10" stroke-linecap="round" stroke-linejoin="round"/>
<path d="M87.0235 284.403C87.0235 284.403 90.3472 259.677 86.2258 260.608C82.1045 261.539 87.0235 284.403 87.0235 284.403Z" stroke="#2D2227" stroke-width="0.25" stroke-miterlimit="10" stroke-linecap="round" stroke-linejoin="round"/>
<path d="M91.5423 303.677C91.5423 303.677 84.3638 294.372 81.5711 289.853" stroke="#2D2227" stroke-width="0.25" stroke-miterlimit="10" stroke-linecap="round" stroke-linejoin="round"/>
<path d="M82.6374 291.582C82.6374 291.582 77.1873 272.042 72.9327 272.839C68.678 273.637 82.6374 291.582 82.6374 291.582Z" stroke="#2D2227" stroke-width="0.25" stroke-miterlimit="10" stroke-linecap="round" stroke-linejoin="round"/>
<path d="M96.5947 318.655C96.5947 318.655 102.976 293.929 99.4311 290.828C95.8866 287.727 96.5947 318.655 96.5947 318.655Z" stroke="#2D2227" stroke-width="0.25" stroke-miterlimit="10" stroke-linecap="round" stroke-linejoin="round"/>
<path d="M99.5186 326.188C99.5186 326.188 78.516 305.008 77.8954 308.643C77.2748 312.277 99.5186 326.188 99.5186 326.188Z" stroke="#2D2227" stroke-width="0.25" stroke-miterlimit="10" stroke-linecap="round" stroke-linejoin="round"/>
<path d="M234.535 210.588C234.535 210.588 240.677 317.948 240.702 335.974C240.727 353.999 225.351 379.856 204.815 378.59C184.277 377.326 175.461 359.089 178.97 328.021C182.482 296.956 214.809 209.299 214.809 209.299L234.535 210.588Z" fill="#F7A9A8"/>
<path d="M234.714 211.045C234.714 211.045 234.352 209.754 235.918 207.595C237.484 205.435 250.842 188.785 251.45 181.606C252.058 174.43 254.53 169.805 250.946 163.886C247.36 157.967 242.126 151.282 239.819 150.21C237.511 149.137 233.054 152.68 233.054 152.68C233.054 152.68 234.629 122.208 234.058 119.296C233.488 116.385 232.902 112.984 229.327 113.086C225.749 113.188 224.945 119.232 224.443 124.453C223.941 129.674 221.79 157.07 221.79 157.07C221.79 157.07 214.001 117.753 211.063 117.349C208.122 116.945 205.032 117.033 205.329 121.741C205.627 126.45 212.65 161.722 212.65 161.722C212.65 161.722 209.37 166.535 209.378 172.554C209.386 178.574 209.551 195.816 210.6 198.39C211.65 200.964 214.988 209.654 214.988 209.654L234.714 211.045Z" fill="#F7A9A8"/>
<path d="M247.957 168.358C247.957 168.358 236.437 182.892 233.6 182.715C230.766 182.538 220.663 172.259 223.675 167.65C226.686 163.041 232.877 152.329 232.877 152.329" stroke="#2D2227" stroke-width="0.25" stroke-miterlimit="10" stroke-linecap="round" stroke-linejoin="round"/>
<path d="M244.411 155.065L227.219 177.396" stroke="#2D2227" stroke-width="0.25" stroke-miterlimit="10" stroke-linecap="round" stroke-linejoin="round"/>
<path d="M216.85 183.244C216.85 183.244 237.322 164.368 232.005 157.456C226.688 150.544 210.471 166.227 210.471 166.227L209.674 180.054L216.85 183.244Z" fill="#F7A9A8"/>
<path d="M211.8 164.457C211.8 164.457 228.991 152.672 231.828 157.102C234.664 161.533 232.715 169.774 217.294 180.587" stroke="#2D2227" stroke-width="0.25" stroke-miterlimit="10" stroke-linecap="round" stroke-linejoin="round"/>
<path d="M222.579 176.537C227.24 180.848 230.647 186.502 232.28 192.637" stroke="#2D2227" stroke-width="0.25" stroke-miterlimit="10" stroke-linecap="round" stroke-linejoin="round"/>
</svg>
