<svg width="268" height="424" viewBox="0 0 268 424" fill="none" xmlns="http://www.w3.org/2000/svg">
<path d="M268 423.048H217.209L70.1793 422.866C70.1793 422.866 69.8938 371.506 70.0965 347.859C67.0723 355.024 63.2372 362.413 58.5871 368.3C58.4651 368.441 58.3658 368.583 58.2644 368.705C54.4294 373.455 50.0627 377.191 45.1292 378.976C22.9399 387.055 9.09732 361.761 8.36713 360.382C8.34644 360.361 8.3464 360.34 8.32571 360.322C8.32571 360.322 8.42707 359.835 8.61117 358.901C8.65254 358.718 8.69183 358.514 8.7332 358.292H8.7539C11.2506 346.152 24.6279 282.615 36.3213 254.073C42.4918 239.031 49.5559 229.023 55.2795 222.689C55.3023 222.668 55.3023 222.648 55.323 222.648V222.627C61.5948 215.685 66.2242 213.126 66.2242 213.126V213.168C84.026 197.455 109.666 188.767 109.666 188.767C109.666 188.767 165.897 182.555 177.305 186.696C188.713 190.838 227.06 210.021 227.06 210.021C227.06 210.021 244.681 226.077 251.419 246.825C258.158 267.552 266.97 371.202 267.477 395.561C268 419.923 268 423.048 268 423.048Z" fill="#7D82B8"/>
<path d="M227.054 210.022C227.054 210.022 221.526 239.391 221.181 247.338" stroke="#2D2227" stroke-width="0.2473" stroke-miterlimit="10" stroke-linecap="round" stroke-linejoin="round"/>
<path d="M221.181 263.579L222.908 422.522" stroke="#2D2227" stroke-width="0.2473" stroke-miterlimit="10" stroke-linecap="round" stroke-linejoin="round"/>
<path d="M225.671 278.781L221.871 312.989" stroke="#2D2227" stroke-width="0.2473" stroke-miterlimit="10" stroke-linecap="round" stroke-linejoin="round"/>
<path d="M71.048 260.295L70.1833 422.866" stroke="#2D2227" stroke-width="0.2473" stroke-miterlimit="10" stroke-linecap="round" stroke-linejoin="round"/>
<path d="M67.0745 269.797L70.8744 317.826" stroke="#2D2227" stroke-width="0.2473" stroke-miterlimit="10" stroke-linecap="round" stroke-linejoin="round"/>
<path d="M65.0019 214.513C65.0019 214.513 69.1473 242.846 70.5291 247.684" stroke="#2D2227" stroke-width="0.2473" stroke-miterlimit="10" stroke-linecap="round" stroke-linejoin="round"/>
<path d="M103.7 191.709C103.7 191.709 110.957 221.769 143.782 221.769C176.606 221.769 188.701 192.054 188.701 192.054" stroke="#2D2227" stroke-width="0.2473" stroke-miterlimit="10" stroke-linecap="round" stroke-linejoin="round"/>
<path d="M180.925 188.771C180.925 188.771 171.077 210.799 148.534 211.316C112.783 212.137 109.662 188.771 109.662 188.771C109.662 188.771 113.381 185.948 117.435 174.517C120.286 166.485 122.36 154.822 122.708 147.454C122.919 143.003 124.417 140.138 124.417 140.138H167.299C167.299 140.138 167.87 142.837 168.747 147.15C169.651 151.635 170.862 157.863 172.072 164.679C174.448 178.069 180.925 188.771 180.925 188.771Z" fill="#EDAEAD"/>
<path d="M168.747 147.148C166.896 152.656 163.692 157.708 159.368 161.801C157.635 163.456 155.711 164.937 153.479 165.938C145.976 169.335 136.573 166.265 130.851 160.603C127.051 156.857 124.606 152.22 122.705 147.452C123.75 143.118 124.414 140.135 124.414 140.135H130.256C130.779 140.179 131.23 140.199 131.563 140.179C131.704 140.179 131.871 140.156 132.132 140.135H167.297C167.299 140.137 167.87 142.837 168.747 147.148Z" fill="#EF798A"/>
<path d="M174.336 9.65593C177.644 12.6222 179.874 16.8255 183.736 19.0202C187.416 21.1115 191.898 20.9977 196.012 21.9968C205.439 24.2847 212.842 33.2021 213.357 42.8891C213.746 50.2014 210.726 58.1446 214.327 64.5198C216.41 68.2081 220.338 70.5145 222.655 74.06C225.961 79.1175 225.425 85.7534 223.96 91.6157C222.498 97.4779 220.214 103.278 220.411 109.316C220.514 112.57 221.344 115.78 221.311 119.034C221.224 127.689 214.213 135.754 205.656 137.047C202.307 137.554 198.83 137.136 195.555 138.009C190.297 139.413 186.278 143.95 180.98 145.199C175.819 146.418 170.282 144.175 166.49 140.468C162.699 136.762 160.415 131.778 158.779 126.735C154.464 113.453 154.108 99.2693 152.335 85.4142C150.19 68.6445 145.939 52.1707 144.715 35.2789C143.987 25.2403 142.292 12.8208 152.821 7.57498C159.881 4.06053 168.255 4.20326 174.336 9.65593Z" fill="#EF798A"/>
<path d="M146.409 7.76762C144.752 4.29661 141.846 1.22276 138.112 0.300189C133.665 -0.800276 129.056 1.29309 125.252 3.84567C121.446 6.39825 117.886 9.51968 113.509 10.8704C106.451 13.0507 98.8655 10.2106 91.4871 10.5808C83.306 10.9904 75.5593 15.5515 70.7334 22.1729C65.9054 28.7923 63.9258 37.2919 64.7119 45.4461C65.1214 49.7176 66.2509 54.0512 65.3035 58.2359C63.8762 64.5511 58.2146 68.8206 54.0816 73.7996C49.5639 79.2378 46.6287 86.2336 47.1003 93.2873C47.5698 100.343 51.8497 107.289 58.4173 109.908C62.5275 111.548 67.8684 111.948 69.8356 115.913C70.7892 117.835 70.6155 120.091 70.5452 122.235C70.3942 126.953 71.3788 132.505 75.5924 134.631C79.2765 136.491 84.001 134.902 87.683 136.774C90.9182 138.421 92.3559 142.194 94.7533 144.92C98.0506 148.668 103.276 150.369 108.263 150.121C113.248 149.872 118.01 147.858 122.224 145.179C127.393 141.892 131.896 137.558 135.382 132.521C145.222 118.3 146.281 99.9853 147.007 82.7047C147.567 69.4288 148.124 56.1508 148.684 42.8728C149.164 31.4876 151.526 18.4847 146.409 7.76762Z" fill="#EF798A"/>
<path d="M192.828 110.252C192.689 110.877 192.515 111.535 192.344 112.157C188.151 127.647 177.858 142.546 163.686 150.206C148.613 158.35 130.385 154.918 117.843 143.587C107.656 134.369 100.933 120.924 97.9168 106.959C96.322 99.8557 95.7345 92.5786 96.1151 85.6821C97.3976 62.2579 109.629 36.3722 132.534 27.8829C138.216 25.7688 144.558 24.6601 150.863 24.7987C158.349 24.9704 165.763 26.9107 171.861 31.0705C180.524 36.9617 186.692 45.9371 190.263 55.742C196.394 72.5861 197.019 92.8558 192.828 110.252Z" fill="#EDAEAD"/>
<path d="M142.697 81.2617C140.183 89.8151 138.81 98.7016 138.617 107.615C138.547 110.947 138.861 114.753 141.491 116.803C143.617 118.462 146.569 118.407 149.264 118.274" stroke="#2D2227" stroke-width="0.3995" stroke-miterlimit="10" stroke-linecap="round" stroke-linejoin="round"/>
<path d="M194.214 91.1846C195.178 87.0909 201.638 82.1016 204.757 80.9825C213.968 77.677 219.409 90.2579 217.257 99.2684C215.408 107.003 209.635 114.284 203.162 117.116C201.096 118.02 187.621 119.246 187.518 119.681C187.516 119.681 194.195 91.2653 194.214 91.1846Z" fill="#EDAEAD"/>
<path d="M197.844 94.324C198.637 91.2688 200.045 88.2384 202.529 86.2898C205.014 84.3412 208.745 83.76 211.344 85.5513C212.905 86.629 213.884 88.4101 214.297 90.2593C214.711 92.1107 214.612 94.0386 214.374 95.9189C213.594 102.073 211.124 108.301 206.243 112.13C203.599 114.205 199.983 115.485 196.849 114.269" stroke="#2D2227" stroke-width="0.4277" stroke-miterlimit="10" stroke-linecap="round" stroke-linejoin="round"/>
<path d="M202.569 114.075C200.5 104.682 200.943 94.7505 203.832 85.5786" stroke="#2D2227" stroke-width="0.4277" stroke-miterlimit="10" stroke-linecap="round" stroke-linejoin="round"/>
<path d="M99.2612 89.7886C98.2994 85.6949 91.8373 80.7056 88.7179 79.5865C79.5067 76.281 74.0664 88.8619 76.2177 97.8725C78.067 105.607 83.8423 112.886 90.3127 115.72C92.3792 116.624 105.854 117.85 105.957 118.285C105.959 118.283 99.2819 89.8713 99.2612 89.7886Z" fill="#EDAEAD"/>
<path d="M96.0487 92.9305C95.2565 89.8732 93.8498 86.8448 91.3634 84.8962C88.8812 82.9477 85.1475 82.3664 82.5494 84.1578C80.9877 85.2355 80.0113 87.0165 79.5976 88.8658C79.1839 90.7171 79.2831 92.645 79.521 94.5253C80.3009 100.679 82.7686 106.908 87.6504 110.736C90.294 112.811 93.9098 114.09 97.0457 112.875" stroke="#2D2227" stroke-width="0.4277" stroke-miterlimit="10" stroke-linecap="round" stroke-linejoin="round"/>
<path d="M90.058 84.1826C92.9498 93.3545 93.3904 103.286 91.3239 112.679" stroke="#2D2227" stroke-width="0.4277" stroke-miterlimit="10" stroke-linecap="round" stroke-linejoin="round"/>
<path d="M193.154 104.343C193.154 104.343 193.094 105.988 192.242 109.42C191.855 111.064 191.265 113.135 190.436 115.631L185.825 126.756L184.667 129.515V129.536C183.084 132.196 181.258 134.854 179.167 137.432C175.249 142.243 170.377 146.688 164.347 149.957C160.268 152.191 155.66 153.875 150.484 154.787C149.286 155.01 148.068 155.192 146.81 155.314H146.79C146.343 155.356 145.896 155.395 145.451 155.436C144.475 155.496 143.542 155.538 142.63 155.558C139.442 155.6 136.499 155.275 133.779 154.625C132.074 154.22 130.45 153.711 128.928 153.062C127.099 152.331 125.395 151.438 123.792 150.443C117.013 146.18 112.14 139.726 108.65 133.005C108.162 132.072 107.694 131.116 107.268 130.184C107.187 130.002 107.107 129.819 107.005 129.635C106.863 129.29 106.701 128.944 106.559 128.601C106.315 128.032 106.071 127.484 105.847 126.917C105.787 126.735 105.706 126.572 105.642 126.39C105.601 126.309 105.582 126.226 105.541 126.146C104.242 122.817 103.247 119.588 102.496 116.666C101.664 113.579 101.114 110.841 100.75 108.708C100.262 105.866 100.101 104.12 100.101 104.12C100.101 104.12 102.678 102.699 107.287 100.932C108.282 100.545 109.357 100.161 110.534 99.7553C110.696 99.6953 110.88 99.6333 111.043 99.5733C116.604 97.7054 124.054 95.7175 132.823 94.7226C132.984 94.6812 133.168 94.6626 133.33 94.6626C135.524 94.3978 137.796 94.2158 140.131 94.1144C140.518 94.0937 140.903 94.073 141.289 94.073C143.075 93.9903 144.901 93.9717 146.75 94.011C148.982 94.0523 151.154 94.1744 153.266 94.3357C153.266 94.3357 153.266 94.3357 153.287 94.3357C156.657 94.5798 159.884 94.9853 162.928 95.4714C166.584 96.0609 169.972 96.7518 173.058 97.5006C180.164 99.2072 185.643 101.156 189.073 102.556C191.733 103.613 193.154 104.343 193.154 104.343Z" fill="#FCDDBC"/>
<path d="M132.823 94.7201V112.158H111.043V99.5729C110.88 99.635 110.696 99.695 110.534 99.755V112.667H133.332V94.6602C133.168 94.6602 132.984 94.6808 132.823 94.7201Z" fill="#FFFEFD"/>
<path d="M173.505 101.358C173.505 106.27 171.393 110.716 168.023 113.802C167.901 113.924 167.781 114.046 167.636 114.147C164.693 116.745 160.796 118.289 156.574 118.289C154.909 118.289 153.306 118.045 151.802 117.618C151.64 117.556 151.477 117.517 151.316 117.455C144.537 115.242 139.643 108.868 139.643 101.358C139.643 98.7388 140.23 96.2814 141.287 94.0701C143.072 93.9874 144.899 93.9687 146.748 94.008C148.98 94.0494 151.152 94.1715 153.264 94.3328C153.264 94.3328 153.264 94.3328 153.285 94.3328C156.655 94.5769 159.881 94.9823 162.926 95.4684C166.581 96.058 169.97 96.7489 173.056 97.4977C173.362 98.7388 173.505 100.04 173.505 101.358Z" fill="#E5C3D1"/>
<path d="M137.209 138.507C137.209 144.698 133.88 150.117 128.926 153.061C127.098 152.331 125.393 151.437 123.79 150.442C117.011 146.179 112.138 139.725 108.648 133.004C108.16 132.072 107.693 131.116 107.266 130.183C107.186 130.001 107.105 129.819 107.004 129.635C106.861 129.289 106.7 128.944 106.557 128.601C106.921 128.073 107.349 127.566 107.773 127.099C107.916 126.935 108.077 126.774 108.222 126.631C111.286 123.506 115.57 121.557 120.28 121.557C129.636 121.557 137.209 129.149 137.209 138.507Z" fill="#E5C3D1"/>
<path d="M185.825 126.753L184.666 129.512V129.533C183.084 132.193 181.257 134.851 179.166 137.428C175.248 142.24 170.377 146.685 164.347 149.953C163.232 147.68 162.601 145.142 162.601 142.463C162.601 133.126 170.193 125.532 179.551 125.532C181.764 125.534 183.878 125.96 185.825 126.753Z" fill="#E5C3D1"/>
<path d="M168.023 113.802L154.321 102.271L151.318 117.457L147.844 134.996L147.722 135.666L171.229 116.929L171.473 116.726L168.023 113.802ZM148.473 134.406L151.802 117.618L154.664 103.204L167.636 114.147L170.683 116.724L148.473 134.406Z" fill="#D9DBBC"/>
<path d="M177.816 115.773C177.778 115.773 177.743 115.765 177.706 115.748C177.578 115.688 177.526 115.537 177.584 115.411L182.768 104.526C182.828 104.398 182.983 104.348 183.107 104.406C183.233 104.466 183.287 104.617 183.227 104.743L178.045 115.628C178.004 115.719 177.911 115.773 177.816 115.773Z" fill="#FFFEFD"/>
<path d="M180.147 118.104C180.109 118.104 180.074 118.096 180.037 118.079C179.911 118.019 179.857 117.868 179.917 117.742L185.101 106.858C185.161 106.729 185.316 106.684 185.44 106.738C185.566 106.798 185.62 106.949 185.562 107.075L180.376 117.959C180.335 118.052 180.242 118.104 180.147 118.104Z" fill="#FFFEFD"/>
<path d="M154.453 144.404C154.445 144.404 154.437 144.404 154.429 144.404L142.429 143.239C142.288 143.227 142.187 143.103 142.201 142.962C142.214 142.823 142.344 142.722 142.479 142.734L154.478 143.899C154.619 143.914 154.72 144.036 154.706 144.176C154.693 144.304 154.584 144.404 154.453 144.404Z" fill="#FFFEFD"/>
<path d="M153.053 147.391C153.045 147.391 153.037 147.391 153.03 147.391L141.031 146.226C140.892 146.212 140.791 146.09 140.803 145.949C140.816 145.809 140.942 145.697 141.08 145.722L153.078 146.886C153.219 146.899 153.32 147.023 153.306 147.164C153.293 147.294 153.183 147.391 153.053 147.391Z" fill="#FFFEFD"/>
<path d="M115.021 127.545C115 127.686 114.899 127.789 114.756 127.789C114.756 127.789 114.756 127.789 114.736 127.789L107.773 127.101L105.845 126.919C105.785 126.737 105.704 126.573 105.64 126.391L108.22 126.635L114.796 127.285C114.938 127.281 115.04 127.403 115.021 127.545Z" fill="#FFFEFD"/>
<path d="M113.621 130.549C113.6 130.671 113.497 130.772 113.377 130.772C113.356 130.772 113.356 130.772 113.335 130.772L107.264 130.183C107.183 130.001 107.103 129.819 107.001 129.635L113.395 130.264C113.538 130.286 113.641 130.406 113.621 130.549Z" fill="#FFFEFD"/>
<path d="M138.749 125.668C141.003 125.668 142.83 123.841 142.83 121.587C142.83 119.333 141.003 117.506 138.749 117.506C136.495 117.506 134.668 119.333 134.668 121.587C134.668 123.841 136.495 125.668 138.749 125.668Z" fill="#D9DBBC"/>
<path d="M150.484 154.786C149.286 155.01 148.068 155.192 146.81 155.314H146.79C146.343 155.355 145.896 155.394 145.451 155.436C144.475 155.496 143.542 155.537 142.63 155.558C142.913 153.609 144.599 152.107 146.649 152.107C148.413 152.107 149.915 153.224 150.484 154.786Z" fill="#D9DBBC"/>
<path d="M193.154 104.342C193.154 104.342 193.094 105.987 192.241 109.418H192.08C189.805 109.418 187.978 107.592 187.978 105.319C187.978 104.243 188.384 103.269 189.074 102.559C191.733 103.612 193.154 104.342 193.154 104.342Z" fill="#D9DBBC"/>
<path d="M105.905 112.646C105.905 114.675 104.422 116.361 102.496 116.665C101.664 113.579 101.114 110.84 100.75 108.707C101.093 108.606 101.46 108.564 101.826 108.564C104.078 108.564 105.905 110.391 105.905 112.646Z" fill="#D9DBBC"/>
<path d="M208.339 80.4896C207.243 80.3675 206.227 80.4689 205.357 80.713C204.26 80.3882 203.143 80.4503 202.026 80.8764C194.232 83.7599 188.69 102.333 188.628 102.515C188.548 102.84 188.241 103.064 187.917 103.064C187.836 103.064 187.755 103.043 187.695 103.022C187.29 102.9 187.064 102.495 187.189 102.087C187.41 101.297 192.995 82.5995 201.499 79.4532C203.733 78.6217 205.985 78.9051 208.157 80.3262C208.217 80.3675 208.279 80.4296 208.339 80.4896Z" fill="#FCDDBC"/>
<path d="M199.244 117.802C192.484 122.41 186.761 125.149 186.699 125.191C186.597 125.232 186.477 125.273 186.376 125.273C186.09 125.273 185.807 125.11 185.685 124.827C185.503 124.46 185.664 123.993 186.051 123.811C186.092 123.79 190.252 121.782 195.633 118.371C196.81 118.205 198.088 118.002 199.244 117.802Z" fill="#FCDDBC"/>
<path d="M104.201 103.854C104.12 103.875 104.04 103.875 103.957 103.875C103.632 103.875 103.349 103.693 103.245 103.368C101.052 96.8522 93.9698 79.6978 87.5553 78.5001C86.5789 78.3181 85.646 78.5001 84.7338 79.0897C83.6168 79.2717 82.6425 79.6792 81.8316 80.1446C81.8109 79.9419 81.8523 79.7392 81.993 79.5778C83.7595 77.4659 85.7081 76.6136 87.818 76.9984C96.4459 78.6015 104.342 101.885 104.687 102.88C104.809 103.285 104.606 103.712 104.201 103.854Z" fill="#FCDDBC"/>
<path d="M106.453 124.438C106.331 124.722 106.048 124.885 105.785 124.885C105.661 124.885 105.541 124.844 105.44 124.802C105.38 124.761 98.8223 121.596 91.4728 116.439C91.3321 116.338 91.2308 116.177 91.1687 116.013C92.2464 116.359 93.4834 116.603 94.6604 116.764C100.912 120.903 106.048 123.402 106.108 123.423C106.474 123.607 106.637 124.074 106.453 124.438Z" fill="#FCDDBC"/>
<path d="M137.634 32.8222C134.54 33.1945 131.191 32.4891 128.438 33.9495C124.619 35.9746 123.866 40.964 122.29 44.9873C120.108 50.5641 115.505 55.1459 109.918 57.3013C107.802 58.1184 105.423 58.6893 103.975 60.4331C102.368 62.3692 102.403 65.1287 102.244 67.6399C102 71.5287 101.092 75.3741 99.5732 78.961C98.2638 82.0493 95.5251 85.3962 92.2734 84.5729C90.2814 84.0682 89.0092 82.1362 88.1921 80.2518C84.8907 72.6271 86.0057 63.6579 89.3753 56.0664C92.747 48.4728 98.1666 42.0003 103.63 35.7409C106.755 32.1602 109.953 28.5796 113.813 25.8078C121.7 20.1482 133.433 17.0661 143.126 17.2854C155.306 17.5646 145.247 31.9058 137.634 32.8222Z" fill="#EF798A"/>
<path d="M155.585 29.3408C160.03 31.31 165.26 33.3765 166.71 38.0162C167.454 40.4033 166.999 43.0469 167.79 45.4175C170.16 52.5126 181.297 52.5891 184.807 59.196C186.231 61.8727 186.065 65.0665 186.274 68.0907C186.483 71.1129 187.333 74.4598 189.927 76.0277C190.837 76.58 191.9 76.8634 192.775 77.4736C194.747 78.8513 195.5 81.6997 197.728 82.6098C199.767 83.4455 202.187 82.1361 203.3 80.2331C204.415 78.3321 204.531 76.0215 204.514 73.8165C204.413 59.9366 200.106 45.947 191.501 35.0561C182.894 24.1653 169.868 16.6151 156.024 15.6098C152.575 15.3595 146.945 16.0938 146.846 20.4274C146.746 24.67 152.335 27.9011 155.585 29.3408Z" fill="#EF798A"/>
<path d="M102.916 94.0117C102.138 87.4979 101.365 80.982 100.581 74.4681C100.361 72.6395 100.504 68.8251 98.2638 68.0329C95.6429 67.1062 93.8929 70.6848 93.0366 72.5485C91.3548 76.2119 91.7003 79.2072 93.0966 82.8561C94.9397 87.6696 95.856 92.7106 97.5584 97.4993C98.0817 97.2221 102.961 94.3985 102.916 94.0117Z" fill="#EF798A"/>
<path d="M186.257 96.157C186.15 96.5893 186.059 97.0837 186.379 97.4374C186.617 97.7001 187.023 97.8098 187.401 97.9049C189.321 98.3848 191.236 98.8627 193.156 99.3426C194.575 96.5624 195.99 93.7823 197.407 91.0022C199.089 87.7049 206.912 66.3121 194.575 71.0139C189.842 72.8176 189.952 77.4677 189.348 81.098C188.508 86.1432 187.476 91.1677 186.257 96.157Z" fill="#EF798A"/>
<path d="M108.075 71.434C107.277 72.6338 106.648 74.0114 106.673 75.4532C106.698 76.8949 107.519 78.3864 108.878 78.8621C110.051 79.2738 111.335 78.8807 112.527 78.5167C116.837 77.1907 121.25 76.1958 125.714 75.5442C127.834 75.2339 130.289 74.7912 131.305 72.9047C132.176 71.2892 131.522 69.1731 130.204 67.8989C128.887 66.6246 127.052 66.0351 125.25 65.6752C118.722 64.372 111.995 65.5573 108.075 71.434Z" fill="#2D2227"/>
<path d="M181.868 72.7289C182.669 73.9287 183.298 75.3063 183.273 76.7481C183.244 78.1878 182.427 79.6813 181.068 80.1571C179.895 80.5666 178.61 80.1757 177.419 79.8116C173.108 78.4857 168.694 77.4907 164.232 76.8391C162.112 76.5288 159.654 76.0862 158.641 74.1997C157.77 72.5841 158.421 70.468 159.739 69.1938C161.061 67.9175 162.892 67.33 164.693 66.9701C171.222 65.6669 177.951 66.8522 181.868 72.7289Z" fill="#2D2227"/>
<path d="M122.532 90.9075C124.539 90.9075 126.167 89.2803 126.167 87.2731C126.167 85.2659 124.539 83.6387 122.532 83.6387C120.525 83.6387 118.898 85.2659 118.898 87.2731C118.898 89.2803 120.525 90.9075 122.532 90.9075Z" fill="#2D2227"/>
<path d="M164.859 91.9437C166.866 91.9437 168.493 90.3165 168.493 88.3092C168.493 86.302 166.866 84.6748 164.859 84.6748C162.851 84.6748 161.224 86.302 161.224 88.3092C161.224 90.3165 162.851 91.9437 164.859 91.9437Z" fill="#2D2227"/>
<path d="M78.6706 169.671C77.0861 175.111 67.1612 182.764 59.9751 186.641C52.789 190.538 50.3109 193.705 50.3109 193.705L48.5257 204.85L16.4116 204.972L21.3451 176.493C21.3451 176.493 24.6961 166.89 23.7819 157.41C22.8696 147.91 20.677 131.386 20.677 131.386C20.677 131.386 13.2075 112.914 15.1767 111.309C17.1439 109.706 25.1843 110.132 28.1879 117.622C31.2121 125.133 35.4567 137.068 35.4567 137.068C35.4567 137.068 43.1082 134.956 49.26 131.607C55.4119 128.238 62.1905 125.336 66.0483 128.827C69.66 132.056 68.3816 135.891 68.1789 136.4V136.421C68.1582 136.442 68.1583 136.462 68.1583 136.462C68.1583 136.462 68.7064 136.504 69.478 136.686C71.2032 137.091 74.066 138.229 74.2687 141.274C74.49 144.399 74.3701 145.903 74.2687 146.491C74.2253 146.735 74.2066 146.836 74.2066 146.836C74.2066 146.836 74.4921 146.919 74.9389 147.14C76.298 147.728 79.0594 149.413 79.0201 152.762C78.9788 155.238 78.2693 156.904 77.6197 157.878C77.1109 158.691 76.6641 159.055 76.6641 159.055C76.6641 159.055 76.7241 159.156 76.8482 159.34C77.5329 160.474 80.011 165.002 78.6706 169.671Z" fill="#EDAEAD"/>
<path d="M69.4758 136.683L58.3118 143.017C58.2312 143.058 58.1712 143.077 58.0884 143.077C57.9478 143.077 57.7864 142.996 57.7016 142.854C57.5795 142.651 57.6602 142.386 57.865 142.264L68.1767 136.418C68.156 136.439 68.156 136.46 68.156 136.46C68.156 136.46 68.7042 136.501 69.4758 136.683Z" fill="#2D2227"/>
<path d="M74.9369 147.138L64.7246 152.945C64.6439 152.986 64.5839 153.005 64.5032 153.005C64.3605 153.005 64.1991 152.924 64.1164 152.781C63.9944 152.558 64.075 152.295 64.2778 152.173L74.2667 146.489C74.2233 146.733 74.2046 146.834 74.2046 146.834C74.2046 146.834 74.4901 146.915 74.9369 147.138Z" fill="#2D2227"/>
<path d="M76.6622 159.052C76.6622 159.052 76.7221 159.154 76.8463 159.338L69.3954 163.56C69.3127 163.601 69.2527 163.62 69.172 163.62C69.0106 163.62 68.8679 163.539 68.7852 163.396C68.6631 163.194 68.7438 162.91 68.9486 162.788L77.6158 157.875C77.1069 158.688 76.6622 159.052 76.6622 159.052Z" fill="#2D2227"/>
<path d="M65.6928 338.561C64.129 349.522 58.9121 356.851 52.1935 361.439H52.1728C52.0321 361.561 51.8688 361.663 51.726 361.743C36.2554 371.954 13.2387 367.995 8.36524 360.382C8.34456 360.362 8.34452 360.341 8.32383 360.322C8.10043 359.977 7.89773 359.633 7.69294 359.267C7.61227 359.125 7.53159 358.982 7.45091 358.821C1.54523 347.839 2.69949 332.147 0.730238 298.123C-1.3383 262.538 15.9361 201.03 15.9361 201.03L51.1778 199.142C51.1778 199.142 51.5646 201.111 52.1914 204.603C52.3134 205.293 52.4562 206.044 52.5969 206.855C52.841 208.136 53.083 209.557 53.3478 211.118C53.4698 211.747 53.5691 212.376 53.6932 213.046C53.8152 213.797 53.9559 214.569 54.08 215.361C54.4855 217.595 54.893 220.03 55.3191 222.63C60.8007 255.271 69.3045 313.228 65.6928 338.561Z" fill="#7D82B8"/>
<path d="M51.1799 199.136C51.1799 199.136 63.618 262.541 63.9634 311.952" stroke="#2D2227" stroke-width="0.2473" stroke-miterlimit="10" stroke-linecap="round" stroke-linejoin="round"/>
<path d="M58.5849 368.299C58.4629 368.44 58.3636 368.583 58.2622 368.705C56.353 366.187 54.2431 363.691 51.7257 361.742C51.0348 361.194 50.3025 360.708 49.5537 360.261C45.6152 357.926 40.9051 357.053 36.8053 356.525C25.5193 355.063 16.2419 355.834 8.60896 358.9C8.30489 359.001 7.97809 359.144 7.6947 359.266C7.61402 359.123 7.53334 358.981 7.45267 358.819C7.87879 358.637 8.28424 358.453 8.73105 358.292H8.75169C16.4032 355.309 25.6414 354.556 36.8673 356.018C41.0085 356.567 45.7993 357.44 49.8184 359.814C50.65 360.302 51.4216 360.848 52.1745 361.438H52.1952C54.6692 363.407 56.7398 365.844 58.5849 368.299Z" fill="#2D2227"/>
</svg>
