<svg width="366" height="511" viewBox="0 0 366 511" fill="none" xmlns="http://www.w3.org/2000/svg">
<path d="M60.9587 328.209V154.124C60.9587 86.8263 115.548 32.2651 182.88 32.2651C250.216 32.2651 304.805 86.8263 304.805 154.124V328.209H60.9587Z" fill="#534741"/>
<path d="M195.943 32.9901C129.11 25.6763 68.9977 73.9022 61.6841 140.705C61.1965 145.161 60.9546 149.641 60.9585 154.124V328.209H87.0848V154.124C87.0965 91.8866 134.032 39.6567 195.943 32.9901Z" fill="#3D3430"/>
<path d="M339.637 511V406.548C339.637 351.827 297.382 306.381 242.781 302.377H122.967C68.3699 306.389 26.1224 351.835 26.1263 406.548V511H339.637Z" fill="#5538C2"/>
<path d="M60.9586 450.072C60.9742 447.156 61.2082 444.248 61.6568 441.367H8.70609V476.185H66.907C63.0454 468.018 61.0171 459.105 60.9586 450.072Z" fill="#AB76CB"/>
<path d="M78.3788 511V493.593C73.6669 488.423 69.7975 482.548 66.9071 476.182H26.1263V511H78.3788Z" fill="#F2C09A"/>
<path d="M304.805 450.072C304.789 447.156 304.555 444.248 304.107 441.367H357.054V476.185H298.857C302.718 468.018 304.746 459.105 304.805 450.072Z" fill="#AB76CB"/>
<path d="M287.385 511V493.593C292.097 488.423 295.966 482.548 298.857 476.182H339.637V511H287.385Z" fill="#F2C09A"/>
<path d="M226.426 284.689H139.337V336.915L182.88 363.028L226.426 336.915V284.689Z" fill="#F2C09A"/>
<path d="M139.337 310.802V336.915C167.207 348.521 198.556 348.521 226.426 336.915V310.802C198.556 322.408 167.207 322.408 139.337 310.802Z" fill="#CC9C72"/>
<path d="M243.842 493.592H121.921V406.548H156.754L165.464 389.141H200.3L209.006 406.548H243.842V493.592Z" fill="#E6E6E6"/>
<path d="M121.921 423.959H243.842V476.181H121.921V423.959Z" fill="#666666"/>
<path d="M200.3 450.072C200.3 459.686 192.502 467.48 182.88 467.48C173.261 467.48 165.464 459.686 165.464 450.072C165.464 440.454 173.261 432.661 182.88 432.661C192.502 432.661 200.3 440.454 200.3 450.072Z" fill="#80CAEC"/>
<path d="M95.7948 232.463V278.596C135.745 326.669 207.126 333.27 255.22 293.336C260.58 288.888 265.518 283.952 269.968 278.596V206.35L188.906 179.368C159.297 169.504 139.326 141.801 139.337 110.604V119.31C139.337 143.345 119.842 162.83 95.7948 162.83V232.463Z" fill="#F2C09A"/>
<path d="M95.7948 206.35V278.595C98.2639 281.554 100.881 284.389 103.631 287.083C104.364 287.796 105.148 288.451 105.897 289.145C107.98 291.071 110.094 292.958 112.314 294.736C113.344 295.554 114.424 296.311 115.485 297.102C117.521 298.615 119.604 300.096 121.746 301.453C122.974 302.237 124.23 302.977 125.482 303.718C127.573 304.954 129.714 306.128 131.891 307.2C133.252 307.89 134.625 308.552 136.01 309.184C138.206 310.186 140.445 311.09 142.7 311.952C144.154 312.502 145.59 313.055 147.053 313.543C149.389 314.326 151.772 314.981 154.179 315.609C155.65 315.991 157.097 316.416 158.532 316.74C161.146 317.32 163.888 317.73 166.595 318.124C167.894 318.307 169.165 318.576 170.48 318.716C174.595 319.203 178.737 319.465 182.88 319.508C187.248 319.488 191.609 319.219 195.943 318.697C138.877 312.073 95.8221 263.773 95.7948 206.35Z" fill="#E8B894"/>
<path d="M182.88 423.959C168.451 423.959 156.754 435.648 156.754 450.069C156.754 464.493 168.451 476.181 182.88 476.181C197.312 476.181 209.006 464.493 209.006 450.069C209.006 435.648 197.312 423.959 182.88 423.959ZM182.88 458.774C178.07 458.774 174.174 454.876 174.174 450.072C174.174 445.262 178.07 441.367 182.88 441.367C187.693 441.367 191.59 445.265 191.59 450.072C191.59 454.876 187.693 458.774 182.88 458.774Z" fill="black"/>
<path d="M357.053 432.661H348.347V406.548C348.277 375.835 335.702 346.474 313.511 325.227V154.124C313.398 89.5864 266.15 34.7991 202.301 25.1656L215.165 12.3079L202.851 0L182.88 19.957L162.913 0L150.598 12.3079L163.463 25.1656C99.6136 34.7991 52.3656 89.5864 52.2525 154.124V325.227C30.062 346.474 17.4864 375.835 17.4162 406.548V432.661H8.71005C3.9006 432.661 0 436.56 0 441.367V476.181C0 480.988 3.9006 484.887 8.71005 484.887H17.4162V511H34.8324V484.887H61.5437C63.8763 489.133 66.595 493.156 69.6687 496.899V511H87.0849V493.593C87.0849 491.285 86.1682 489.07 84.5339 487.437C75.2426 477.176 69.9651 463.909 69.6687 450.068C70.047 436.248 75.3129 423.008 84.5339 412.704C86.1682 411.071 87.0849 408.856 87.0849 406.548V389.141H69.6687V403.242C62.6047 411.866 57.4559 421.897 54.5694 432.661H34.8324V406.548C34.9962 357.41 72.2509 316.326 121.164 311.352C124.254 313.168 127.39 314.911 130.631 316.443V397.846H121.921C117.112 397.846 113.211 401.741 113.211 406.548V493.593C113.211 498.4 117.112 502.294 121.921 502.294H243.842C248.652 502.294 252.552 498.4 252.552 493.593V406.548C252.552 401.741 248.652 397.846 243.842 397.846H235.132V316.443C238.374 314.911 241.51 313.168 244.599 311.352C293.513 316.326 330.767 357.41 330.931 406.548V432.661H311.194C308.308 421.897 303.159 411.866 296.095 403.242V389.141H278.679V406.548C278.679 408.856 279.595 411.071 281.23 412.704C290.521 422.965 295.798 436.232 296.095 450.068C295.716 463.893 290.451 477.133 281.23 487.437C279.595 489.07 278.679 491.285 278.679 493.593V511H296.095V496.899C299.168 493.156 301.887 489.133 304.22 484.887H330.931V511H348.347V484.887H357.053C361.863 484.887 365.763 480.988 365.763 476.181V441.367C365.763 436.56 361.863 432.661 357.053 432.661ZM54.5694 467.48H17.4162V450.068H52.2525C52.272 455.948 53.0482 461.799 54.5694 467.48ZM174.174 223.761H182.88C192.503 223.761 200.3 215.968 200.3 206.35V192.311L261.259 212.627V275.418C223.083 318.685 157.046 322.825 113.757 284.669C110.485 281.785 107.391 278.693 104.505 275.418V170.81C118.91 168.358 131.634 159.995 139.599 147.746C148.851 165.668 164.457 179.492 183.367 186.522C183.09 187.301 182.927 188.116 182.88 188.943V206.35H174.174C169.364 206.35 165.464 210.249 165.464 215.056C165.464 219.863 169.364 223.761 174.174 223.761ZM235.132 484.887H130.631V415.254H156.754C160.057 415.254 163.073 413.39 164.551 410.439L170.846 397.846H194.917L201.213 410.439C202.691 413.39 205.706 415.254 209.006 415.254H235.132V484.887ZM214.389 397.846L208.136 385.25C206.654 382.283 203.615 380.42 200.3 380.435H165.464C162.164 380.435 159.145 382.299 157.67 385.25L151.375 397.846H148.047V352.287L178.398 370.486C181.156 372.143 184.608 372.143 187.365 370.486L217.716 352.287V397.846H214.389ZM217.716 331.987L182.88 352.88L148.047 331.987V322.989C170.745 329.964 195.018 329.964 217.716 322.989V331.987ZM272.719 198.101L191.66 171.118C165.588 162.456 148.012 138.066 148.047 110.604C148.047 105.797 144.147 101.902 139.337 101.902C134.528 101.902 130.631 105.797 130.631 110.604V119.309C130.631 138.537 115.033 154.128 95.7949 154.128C90.9855 154.128 87.0849 158.023 87.0849 162.83V278.595C87.0888 280.631 87.7987 282.595 89.0976 284.159C93.0177 288.786 97.2733 293.122 101.829 297.118C90.4238 300.155 79.5684 304.977 69.6687 311.402V154.124C69.6687 91.6332 120.357 40.9706 182.884 40.9706C245.406 40.9706 296.095 91.6332 296.095 154.124V311.402C286.191 304.989 275.34 300.178 263.934 297.153C268.49 293.153 272.746 288.822 276.666 284.194C277.973 282.623 278.686 280.642 278.679 278.595V206.35C278.675 202.607 276.276 199.282 272.719 198.101ZM348.347 467.48H311.194C312.715 461.799 313.492 455.948 313.511 450.068H348.347V467.48Z" fill="black"/>
<path d="M148.047 188.943C148.047 193.75 144.147 197.649 139.337 197.649C134.528 197.649 130.631 193.75 130.631 188.943C130.631 184.136 134.528 180.237 139.337 180.237C144.147 180.237 148.047 184.136 148.047 188.943Z" fill="black"/>
<path d="M174.174 293.395H191.59C196.399 293.395 200.3 289.496 200.3 284.689C200.3 279.882 196.399 275.987 191.59 275.987H174.174C169.364 275.987 165.464 279.882 165.464 284.689C165.464 289.496 169.364 293.395 174.174 293.395Z" fill="black"/>
</svg>
