<?xml version="1.0" encoding="utf-8"?>
<!-- Generator: Adobe Illustrator 16.0.0, SVG Export Plug-In . SVG Version: 6.00 Build 0)  -->
<!DOCTYPE svg PUBLIC "-//W3C//DTD SVG 1.1//EN" "http://www.w3.org/Graphics/SVG/1.1/DTD/svg11.dtd">
<svg version="1.1" xmlns="http://www.w3.org/2000/svg" xmlns:xlink="http://www.w3.org/1999/xlink" x="0px" y="0px" width="750px"
	 height="500px" viewBox="0 0 750 500" enable-background="new 0 0 750 500" xml:space="preserve">
<g id="BACKGROUND">
	<rect fill="#FFFFFF" width="750" height="500"/>
</g>
<g id="OBJECTS">
	<g>
		<g>
			<path fill="#382580" d="M207.467,205.636c-5.328-7.307-16.861-8.758-26.549-7.31c-6.2,0.927-12.452,2.855-16.902,6.786
				c-5.236,4.624-7.278,11.355-8.252,17.844c-1.669,11.121-0.802,22.535,2.536,33.357c1.542,4.999,4.452,10.572,10.165,11.708
				c3.224,0.641,6.568-0.35,9.563-1.585c16.813-6.938,28.167-21.688,33.933-37.294c2.935-7.944,4.476-17.13-0.41-24.282"/>
		</g>
		<g>
			<path fill="#231558" d="M192.247,188.071c-1.14-1.213-3.162-1.471-4.571-0.584c-1.906,1.2-2.342,3.875-4.078,5.309
				c2.509,0.827,5.404,0.378,7.545-1.168c0.798-0.577,1.551-1.596,1.095-2.469"/>
		</g>
		<g>
			<path fill="#231558" d="M207.083,188.323c0.666-1.123,1.938-1.859,3.243-1.878s2.598,0.682,3.295,1.785
				c0.488,0.772,0.685,1.691,1.082,2.514s1.113,1.606,2.025,1.638c-1.588,0.187-3.198,0.188-4.787,0.003
				c-1.319-0.154-2.688-0.468-3.679-1.352c-0.991-0.883-1.445-2.485-0.689-3.576"/>
		</g>
		<g>
			<path fill="#231558" d="M208.161,183.026c2.976-0.985,5.308-4.158,4.64-7.221c-0.423-1.94-1.927-3.515-3.683-4.443
				c-1.756-0.927-3.751-1.289-5.724-1.525c-1.842-0.22-3.766-0.332-5.498,0.333c-1.731,0.665-3.215,2.302-3.146,4.155
				c-1.782,0.072-3.454,1.092-4.516,2.524c-1.062,1.432-1.551,3.237-1.588,5.02c-0.063,3.01,1.288,6.174,3.901,7.67
				c2.613,1.497,6.453,0.79,7.89-1.856c0.222-0.409,0.382-0.919,0.157-1.326"/>
		</g>
		<path fill="#E59FFC" d="M230.503,239.195c0,0,7.807,14.881-1.952,29.031c0,0,4.078,22.563,4.879,22.201
			c7.563-3.416,29.275-23.664,14.638-64.649L230.503,239.195z"/>
		<g>
			<path fill="#161616" d="M252.582,244.624c-2.595,1.099-4.578,4.07-4.823,7.689c-0.271,4.005,1.674,7.509,4.546,8.664
				C253.096,256.151,253.272,250.7,252.582,244.624z"/>
		</g>
		<polygon fill="#E59FFC" points="170.978,327.264 170.978,390.205 160.243,398.5 194.886,398.5 196.349,327.264 		"/>
		<path fill="#E59FFC" d="M208.547,328.24c0,0-0.976,46.352-7.806,70.26h33.178l-9.271-7.318c0,0,8.782-32.69,9.758-62.941H208.547z
			"/>
		<polygon fill="#231558" points="194.886,398.5 195.047,390.643 170.978,390.205 160.243,398.5 		"/>
		<path fill="#231558" d="M233.919,398.5l-9.271-7.318l-22.043-0.401c-0.567,2.749-1.187,5.347-1.865,7.72H233.919z"/>
		<g>
			<g>
				<path fill="#FFE6E4" d="M224.28,394.308c0.884-0.205,1.769-0.411,2.653-0.616c0.501-0.116,0.289-0.888-0.212-0.771
					c-0.885,0.205-1.769,0.411-2.654,0.616C223.566,393.652,223.778,394.424,224.28,394.308L224.28,394.308z"/>
			</g>
		</g>
		<g>
			<g>
				<path fill="#FFE6E4" d="M225.966,395.934c0.896-0.319,1.793-0.639,2.69-0.958c0.481-0.172,0.274-0.945-0.213-0.771
					c-0.896,0.319-1.793,0.639-2.69,0.958C225.271,395.334,225.479,396.107,225.966,395.934L225.966,395.934z"/>
			</g>
		</g>
		<g>
			<g>
				<path fill="#FFE6E4" d="M166.246,394.192c1.132,0.201,2.263,0.402,3.395,0.603c0.503,0.09,0.72-0.681,0.213-0.771
					c-1.132-0.2-2.264-0.401-3.395-0.603C165.956,393.332,165.739,394.103,166.246,394.192L166.246,394.192z"/>
			</g>
		</g>
		<g>
			<g>
				<path fill="#FFE6E4" d="M168.208,392.474c0.962,0.29,1.924,0.58,2.886,0.87c0.494,0.148,0.705-0.623,0.213-0.771
					c-0.962-0.29-1.924-0.58-2.886-0.87C167.927,391.554,167.716,392.325,168.208,392.474L168.208,392.474z"/>
			</g>
		</g>
		<g>
			<polyline fill="#FFE6E4" points="195.047,390.643 195.336,376.544 195.129,376.544 170.978,376.544 170.978,390.205 			"/>
			<path fill="#FFE6E4" d="M224.648,391.182c0,0,1.485-5.532,3.301-14.143l-22.989-0.488c-0.66,4.955-1.438,9.793-2.354,14.229"/>
		</g>
		<g>
			<g>
				<path fill="#261F40" d="M216.059,377.025c-0.11,2.186-0.414,4.335-0.912,6.465c-0.117,0.501,0.654,0.715,0.771,0.213
					c0.515-2.201,0.827-4.42,0.941-6.678C216.884,376.511,216.084,376.513,216.059,377.025L216.059,377.025z"/>
			</g>
		</g>
		<g>
			<g>
				<path fill="#261F40" d="M222.13,377.178c-0.162,1.139-0.323,2.277-0.484,3.416c-0.072,0.504,0.699,0.722,0.771,0.213
					c0.162-1.139,0.323-2.277,0.485-3.416C222.973,376.888,222.202,376.67,222.13,377.178L222.13,377.178z"/>
			</g>
		</g>
		<g>
			<g>
				<path fill="#261F40" d="M210.232,377.017c-0.153,1.14-0.306,2.279-0.459,3.419c-0.068,0.509,0.732,0.504,0.8,0
					c0.153-1.14,0.306-2.279,0.459-3.419C211.1,376.508,210.3,376.514,210.232,377.017L210.232,377.017z"/>
			</g>
		</g>
		<g>
			<g>
				<path fill="#261F40" d="M181.735,376.79c0.088,2.439,0.176,4.879,0.264,7.318c0.019,0.513,0.818,0.516,0.8,0
					c-0.088-2.439-0.176-4.879-0.263-7.318C182.517,376.276,181.717,376.274,181.735,376.79L181.735,376.79z"/>
			</g>
		</g>
		<g>
			<g>
				<path fill="#261F40" d="M175.701,376.788c0,1.545,0,3.09,0,4.635c0,0.515,0.8,0.516,0.8,0c0-1.545,0-3.09,0-4.635
					C176.5,376.272,175.701,376.272,175.701,376.788L175.701,376.788z"/>
			</g>
		</g>
		<g>
			<g>
				<path fill="#261F40" d="M188.63,377.031c0,1.627,0,3.253,0,4.88c0,0.515,0.8,0.516,0.8,0c0-1.627,0-3.253,0-4.88
					C189.43,376.517,188.63,376.516,188.63,377.031L188.63,377.031z"/>
			</g>
		</g>
		<ellipse fill="#161616" cx="223.116" cy="330.294" rx="6.412" ry="9.861"/>
		
			<ellipse transform="matrix(-0.9984 0.0568 -0.0568 -0.9984 384.6815 649.652)" fill="#161616" cx="183.106" cy="330.294" rx="6.412" ry="9.861"/>
		<path fill="#FFE6E4" d="M228.552,236.023l0.488,18.541c0,0-30.251,7.318-58.062,0V232.12c0,0-11.222-5.367-19.517-14.638
			c0,0,15.125-24.884,49.28-24.396c36.603,0.522,47.328,32.69,47.328,32.69s-6.505,8.294-17.565,13.417L228.552,236.023z"/>
		<path fill="#5538C2" d="M170.978,254.564v72.699c0,0,11.222,1.952,25.372,0v-38.545l8.294,0.487c0,0,4.392,12.687,3.903,39.034
			c0,0,18.053,3.415,25.86,0c0,0,1.952-28.3-5.855-60.015l0.488-13.661C229.04,254.564,202.692,260.907,170.978,254.564z"/>
		<path fill="#382580" d="M175.938,251.18c-0.712,1.279,18.286-11.088,14.15-34.762c-3.812-21.82-9.644-20.959-12.036-20.16
			c-2.492,0.833-0.732,3.171,2.373,8.131C182.063,207.005,190.679,224.691,175.938,251.18z"/>
		<path fill="#E59FFC" d="M151.461,217.482c0,0-16.102,24.396-6.343,40.01c9.758,15.613,40.985-3.903,41.961-33.179
			c0,0-10.761-12.112-12.686-5.855c-1.952,6.343-6.831,11.222-6.831,11.222S157.804,223.337,151.461,217.482z"/>
		<g>
			<g>
				<path fill="#261F40" d="M167.093,229.215c-3.871,4.365-8.821,7.442-14.452,8.971c-0.497,0.135-0.286,0.907,0.212,0.771
					c5.755-1.563,10.848-4.715,14.805-9.176C168,229.396,167.436,228.829,167.093,229.215L167.093,229.215z"/>
			</g>
		</g>
		<g>
			<g>
				<path fill="#261F40" d="M154.719,236.039c1.299,0.128,2.599,0.256,3.897,0.385c0.512,0.05,0.509-0.75,0-0.8
					c-1.299-0.128-2.598-0.256-3.897-0.384C154.208,235.188,154.211,235.988,154.719,236.039L154.719,236.039z"/>
			</g>
		</g>
		<g>
			<g>
				<path fill="#FFE6E4" d="M201.289,257.812c0.527,5.211,0.517,10.425-0.031,15.634c-0.054,0.512,0.747,0.508,0.8,0
					c0.548-5.209,0.559-10.423,0.031-15.634C202.037,257.304,201.236,257.299,201.289,257.812L201.289,257.812z"/>
			</g>
		</g>
		<g>
			<g>
				<path fill="#FFE6E4" d="M193.745,288.559c4.456,0.116,8.872,0.59,13.25,1.427c0.503,0.097,0.718-0.675,0.212-0.771
					c-4.448-0.851-8.936-1.338-13.463-1.455C193.23,287.746,193.23,288.546,193.745,288.559L193.745,288.559z"/>
			</g>
		</g>
		<g>
			<g>
				<path fill="#FFE6E4" d="M217.938,256.996c1.527,4.174,5.211,7.043,9.628,7.516c0.511,0.055,0.507-0.746,0-0.801
					c-4.033-0.431-7.464-3.122-8.857-6.928C218.535,256.304,217.761,256.511,217.938,256.996L217.938,256.996z"/>
			</g>
		</g>
		<g>
			<g>
				<path fill="#FFE6E4" d="M214.122,256.962c1.106,4.116,3.879,7.485,7.717,9.345c0.461,0.223,0.868-0.467,0.404-0.691
					c-3.66-1.772-6.293-4.937-7.35-8.866C214.76,256.252,213.988,256.463,214.122,256.962L214.122,256.962z"/>
			</g>
		</g>
		<g>
			<g>
				<path fill="#FFE6E4" d="M224.648,267c0.325,0,0.65,0,0.976,0c0.515,0,0.515-0.801,0-0.801c-0.326,0-0.651,0-0.976,0
					C224.134,266.199,224.133,267,224.648,267L224.648,267z"/>
			</g>
		</g>
		<g>
			<g>
				<path fill="#FFE6E4" d="M182.099,257.426c-1.462,4.11-4.995,7.022-9.286,7.747c-0.506,0.085-0.292,0.856,0.212,0.771
					c4.577-0.773,8.293-3.944,9.845-8.306C183.043,257.152,182.271,256.943,182.099,257.426L182.099,257.426z"/>
			</g>
		</g>
		<g>
			<g>
				<path fill="#FFE6E4" d="M186.281,258.066c-1.751,4.164-4.788,7.514-8.734,9.702c-0.45,0.25-0.047,0.941,0.404,0.691
					c4.143-2.299,7.267-5.817,9.102-10.181C187.252,257.806,186.478,257.599,186.281,258.066L186.281,258.066z"/>
			</g>
		</g>
		<g>
			<g>
				<path fill="#FFE6E4" d="M175.435,268.213c-0.541,0.111-1.083,0.224-1.624,0.336c-0.503,0.104-0.291,0.876,0.213,0.771
					c0.541-0.112,1.083-0.225,1.624-0.336C176.151,268.88,175.938,268.108,175.435,268.213L175.435,268.213z"/>
			</g>
		</g>
		<circle fill="#FFE6E4" cx="205.457" cy="260.907" r="1.464"/>
		<path fill="#E59FFC" d="M187.079,224.313c0,0,0.94-3.175,3.253-4.717c1.952-1.301,2.419-2.527,1.952-3.578
			c-0.65-1.463-1.952-1.138-1.952-1.138s1.626-3.09-0.976-4.391c0,0,0.651-2.44-1.138-3.416c0,0,0.813-2.277-1.626-2.765
			c-2.439-0.488-9.108,2.765-12.198,14.15C171.014,230.907,187.079,224.313,187.079,224.313z"/>
		<g>
			<g>
				<path fill="#261F40" d="M190.519,214.551c-2.272,0.723-4.114,2.336-5.091,4.517c-0.208,0.466,0.48,0.873,0.691,0.404
					c0.893-1.994,2.526-3.485,4.613-4.149C191.22,215.167,191.011,214.394,190.519,214.551L190.519,214.551z"/>
			</g>
		</g>
		<g>
			<g>
				<path fill="#261F40" d="M189.063,210.356c-2.827,0.95-5.149,2.83-6.652,5.409c-0.26,0.446,0.431,0.849,0.69,0.404
					c1.396-2.396,3.543-4.157,6.174-5.041C189.762,210.964,189.554,210.191,189.063,210.356L189.063,210.356z"/>
			</g>
		</g>
		<g>
			<g>
				<path fill="#261F40" d="M181.283,212.828c1.521-2.511,3.786-4.384,6.547-5.386c0.48-0.174,0.273-0.948-0.212-0.771
					c-2.961,1.075-5.393,3.057-7.025,5.753C180.324,212.866,181.016,213.268,181.283,212.828L181.283,212.828z"/>
			</g>
		</g>
		<g>
			<g>
				<path fill="#261F40" d="M228.203,219.242c1.185,5.66,1.217,11.399,0.093,17.072c-0.1,0.503,0.671,0.718,0.771,0.213
					c1.152-5.812,1.122-11.699-0.093-17.498C228.869,218.526,228.098,218.739,228.203,219.242L228.203,219.242z"/>
			</g>
		</g>
		<g>
			<g>
				<path fill="#261F40" d="M228.87,236.91c1.217-1.257,2.222-2.673,3-4.241c0.228-0.459-0.462-0.865-0.691-0.404
					c-0.748,1.508-1.703,2.87-2.875,4.08C227.946,236.715,228.511,237.281,228.87,236.91L228.87,236.91z"/>
			</g>
		</g>
		<path fill="#E59FFC" d="M205.347,195.413l-0.309-2.352c0,0,5.993,0.928,5.718-4.174c-0.479-8.888-0.092-11.322-3.928-13.844
			s-13.026,1.877-12.023,9.288l1.176,10.786c0,0,1.45,1.077,4.249,1.211C203.164,196.468,205.347,195.413,205.347,195.413z"/>
		
			<ellipse transform="matrix(-0.9995 -0.0322 0.0322 -0.9995 402.502 373.5767)" fill="#1C0048" cx="204.263" cy="183.543" rx="0.295" ry="0.648"/>
		
			<ellipse transform="matrix(-0.9995 -0.0322 0.0322 -0.9995 411.8013 373.9698)" fill="#1C0048" cx="208.916" cy="183.665" rx="0.295" ry="0.648"/>
		<path fill="#161616" d="M205.236,193.064c0,0-2.825-0.129-5.162-1.809l5.298,4.309L205.236,193.064z"/>
		<g>
			<g>
				<path fill="#161616" d="M206.599,187.055c-0.436,0.103-0.868-0.04-1.132-0.409c-0.171-0.239-0.57-0.009-0.397,0.232
					c0.387,0.542,1.003,0.773,1.652,0.621C207.009,187.431,206.888,186.987,206.599,187.055L206.599,187.055z"/>
			</g>
		</g>
		<path fill="#E59FFC" d="M191.951,185.269c0.162-1.48,1.524-2.551,3.043-2.392c1.519,0.159,2.62,1.487,2.458,2.967
			c-0.162,1.479-1.525,2.551-3.044,2.392C192.889,188.078,191.789,186.749,191.951,185.269z"/>
		<path fill="#161616" d="M197.324,185.625c0.185-1.689,1.74-2.911,3.474-2.729s2.99,1.697,2.805,3.387
			c-0.185,1.689-1.74,2.911-3.474,2.729C198.396,188.83,197.14,187.314,197.324,185.625z"/>
		<g>
			<path fill="#E59FFC" d="M209.245,186.115c0.098-0.892,0.583-1.646,1.27-2.14c0.074,1.384,0.138,2.99,0.241,4.912
				c0.004,0.064-0.005,0.116-0.003,0.178C209.739,188.464,209.111,187.338,209.245,186.115z"/>
			<path fill="#161616" d="M209.245,186.115c0.098-0.892,0.583-1.646,1.27-2.14c0.074,1.384,0.138,2.99,0.241,4.912
				c0.004,0.064-0.005,0.116-0.003,0.178C209.739,188.464,209.111,187.338,209.245,186.115z"/>
		</g>
		
			<ellipse transform="matrix(-0.953 0.3029 -0.3029 -0.953 454.0459 290.3461)" fill="#231558" cx="204.506" cy="180.385" rx="0.789" ry="0.44"/>
		<path fill="#231558" d="M207.973,180.146c-0.052,0.238,0.251,0.5,0.677,0.587c0.426,0.085,0.813-0.038,0.864-0.276
			c0.052-0.238-0.251-0.5-0.677-0.586C208.412,179.785,208.024,179.908,207.973,180.146z"/>
		<g>
			<g>
				<path fill="#161616" d="M194.197,184.615c0.767-0.022,1.441,0.559,1.45,1.342c0.003,0.296,0.463,0.297,0.46,0
					c-0.011-1.026-0.893-1.832-1.91-1.802C193.902,184.164,193.9,184.625,194.197,184.615L194.197,184.615z"/>
			</g>
		</g>
		<g>
			<path fill="#231558" d="M209.882,174.987c-0.102,0.729-0.237,1.476-0.63,2.097s-1.107,1.094-1.836,0.995
				c-0.808-0.109-1.36-0.836-1.973-1.374c-0.613-0.538-1.641-0.882-2.18-0.27c-0.352,0.4-0.297,0.998-0.312,1.53
				c-0.015,0.533-0.226,1.174-0.751,1.265c-0.283,0.049-0.561-0.087-0.838-0.165c-1.156-0.325-2.417,0.439-2.961,1.51
				c-0.543,1.07-0.646,1.843-0.371,3.012c0.099,0.422,0.362,1.745-0.657,1.826c-1.621,0.128-3.045-2.392-2.935-4.637
				c0.081-1.667,0.205-2.487,1.111-3.888c0.907-1.4,2.172-2.529,3.489-3.554c0.411-0.32,0.837-0.637,1.328-0.81
				c0.909-0.321,1.915-0.113,2.835,0.17c1.47,0.453,2.882,1.094,4.191,1.902"/>
		</g>
		<g>
			<path fill="#161616" d="M207.575,185.09c0.012-0.933-0.085-2.073-0.262-2.895c-0.091-0.424-0.414-0.537-0.791-0.501
				c-0.544,0.052-0.597,0.341-0.629,0.725c-0.045,0.529-0.042,1.063-0.029,1.595c0.011,0.453-0.045,1.05,0.112,1.479
				c0.144,0.389,0.739,0.423,1.077,0.345c0.354-0.083,0.533-0.37,0.523-0.736"/>
		</g>
		<g>
			<g>
				<path fill="#261F40" d="M191.254,197.846c4.231,2.407,9.106,2.975,13.776,1.595c0.493-0.146,0.283-0.917-0.213-0.771
					c-4.469,1.32-9.107,0.791-13.159-1.515C191.21,196.9,190.807,197.591,191.254,197.846L191.254,197.846z"/>
			</g>
		</g>
		<g>
			<g>
				<path fill="#261F40" d="M207.994,198.277c0.241-0.166,0.483-0.332,0.724-0.499c0.421-0.29,0.022-0.983-0.404-0.691
					c-0.241,0.167-0.483,0.333-0.725,0.499C207.168,197.876,207.568,198.57,207.994,198.277L207.994,198.277z"/>
			</g>
		</g>
		<g>
			<path fill="#161616" d="M151.379,255.709c-2.217-3.192-5.766-4.726-8.68-4.011c0.501,2.016,1.277,3.966,2.419,5.794
				c1.94,3.104,4.736,4.799,7.966,5.325C153.509,260.603,152.961,257.987,151.379,255.709z"/>
		</g>
	</g>
	<g>
		<g>
			<path fill="#5538C2" d="M334.016,146.496c-2.447-2.012-6.311-1.423-8.732,0.62s-3.647,5.168-4.368,8.253
				c-0.409,1.748-0.815,3.728-2.326,4.696c-0.789,0.505-1.75,0.637-2.667,0.821c-3.275,0.657-6.765,2.614-7.336,5.906
				c-0.467,2.69,1.177,5.507,0.364,8.114c-0.794,2.547-3.795,4.948-2.411,7.229c0.777,1.28,2.634,1.491,4.02,0.923
				s2.443-1.701,3.559-2.7c4.973-4.454,11.943-6.587,18.557-5.68c2.165,0.297,4.318,0.903,6.498,0.744
				c2.18-0.16,4.487-1.329,5.137-3.416c0.189-0.609,0.248-1.299,0.685-1.764c0.682-0.723,1.859-0.508,2.821-0.758
				c2.206-0.573,2.852-3.406,2.679-5.678c-0.508-6.7-4.742-12.996-10.755-15.993"/>
		</g>
		<path fill="#5538C2" d="M340.787,272l6.5-2.5V389h24.5c0,0,5.739-107.945,0-136c-4.5-22-10-26.5-10-26.5l-41,3.5
			c0,0-26,113.5-36.5,159h23.458C315.078,364.144,333.996,299.563,340.787,272z"/>
		<path fill="#E59FFC" d="M390.12,201.333c-13.08-34.633-56.833-33.833-56.833-33.833s-16.5-1.5-28,7.5
			c-11.032,8.634-22.5,34.5-20,95c0.378,10.399,1.625,20.25,3.75,22.5c1.343,1.423,2.387,0.494,3.125-0.375
			c0.412,0.895,1.407,1.375,2.125,1.375c0.75,0,1.41-0.511,1.819-1.485c0.397,1.687,2.181,1.485,2.181,1.485c4.5-1,3-12,3-12
			c5-0.5,3.5-12.5,3.5-12.5c0.5-1.5-1-42,7.5-62l8.5,23l41-3.5l-3.333-22.833l0.333-6c0,0,9.667,2,13.667,12.667
			c2.748,7.328,3.333,18.167-6.667,25.667l5.5,18.5C371.287,254.5,404.786,240.167,390.12,201.333z"/>
		<path fill="#231558" d="M324.287,167.75c0,0-7.5,19.917-14.833,31.25l8,22c0,0,10-1.333,20-2.333s22.667-2.333,22.667-2.333
			l-1.667-12.667c0,0,4-5,2-11.333c-2-6.333-7.333-7.667-7.333-7.667l-8-16.333l-1.917-0.417l4.25,10.083c0,0-10,2.333-26,1
			l4.667-11.583L324.287,167.75z"/>
		<path fill="#E59FFC" d="M311.453,289c0,0,6.667,1.333,12,1.333c0,0-3.667,1.667-5,2c0,0,5,1.334,8.333,1.334c0,0-5.333,2-9,2.666
			c0,0,2.25,1.042,4.5,1.917c0,0-6.5,0.75-12-1.5l4.5-1.75c0,0-3.333-0.75-5.875-2.75c0,0,2.25,0.25,5.542,0.083L311.453,289z"/>
		<path fill="#E59FFC" d="M368.707,268.53c0,0-8.495,3.137-14.939,3.774c0,0,4.016,1.899,7.465,1.941c0,0-3.244,3-8.202,4.161
			c0,0,8.347,1.184,15.592-2.978l-4.586,0.07c0,0,4.375-1.725,6.401-3.982c0,0-4.455,0.919-6.322,0.912L368.707,268.53z"/>
		<g>
			<g>
				<path fill="#FFF1F0" d="M345.366,227.819c1.529,9.07,1.829,18.268,0.916,27.42c-0.051,0.512,0.749,0.508,0.8,0
					c0.92-9.226,0.597-18.491-0.944-27.633C346.052,227.1,345.28,227.315,345.366,227.819L345.366,227.819z"/>
			</g>
		</g>
		<g>
			<g>
				<path fill="#FFF1F0" d="M318.607,242.218c5.958-1.395,10.655-6.104,12.033-12.066c0.116-0.501-0.655-0.715-0.771-0.212
					c-1.318,5.707-5.771,10.172-11.474,11.508C317.894,241.564,318.105,242.336,318.607,242.218L318.607,242.218z"/>
			</g>
		</g>
		<g>
			<g>
				<path fill="#FFF1F0" d="M317.638,247.097c6.754-1.036,12.581-5.461,15.396-11.687c0.21-0.465-0.479-0.873-0.691-0.404
					c-2.744,6.067-8.337,10.31-14.918,11.319C316.917,246.403,317.133,247.174,317.638,247.097L317.638,247.097z"/>
			</g>
		</g>
		<g>
			<g>
				<path fill="#FFF1F0" d="M333.87,233.194c0.36-0.6,0.549-1.246,0.584-1.944c0.026-0.515-0.774-0.513-0.8,0
					c-0.028,0.559-0.188,1.062-0.475,1.54C332.914,233.233,333.605,233.636,333.87,233.194L333.87,233.194z"/>
			</g>
		</g>
		<g>
			<g>
				<path fill="#FFF1F0" d="M350.409,228.217c2.639,5.592,9.175,11.207,15.776,10.039c0.506-0.089,0.292-0.861-0.212-0.771
					c-6.243,1.104-12.408-4.446-14.873-9.671C350.88,227.348,350.19,227.753,350.409,228.217L350.409,228.217z"/>
			</g>
		</g>
		<g>
			<g>
				<path fill="#FFF1F0" d="M354.454,227.693c1.635,2.352,3.768,4.222,6.329,5.51c0.458,0.231,0.864-0.459,0.404-0.691
					c-2.436-1.225-4.484-2.983-6.042-5.223C354.853,226.87,354.159,227.27,354.454,227.693L354.454,227.693z"/>
			</g>
		</g>
		<g>
			<g>
				<path fill="#FFF1F0" d="M363.537,234.15c0.25,0,0.5,0,0.75,0c0.515,0,0.516-0.8,0-0.8c-0.25,0-0.5,0-0.75,0
					C363.021,233.35,363.021,234.15,363.537,234.15L363.537,234.15z"/>
			</g>
		</g>
		<g>
			<g>
				<path fill="#261F40" d="M306.056,198.156c1.177,0.562,2.354,1.124,3.53,1.686c0.462,0.221,0.869-0.469,0.404-0.691
					c-1.177-0.562-2.354-1.124-3.53-1.686C305.997,197.244,305.591,197.934,306.056,198.156L306.056,198.156z"/>
			</g>
		</g>
		<g>
			<g>
				<path fill="#FFE6E4" d="M332.361,201.749c-1.644,2.541-4.189,4.191-7.168,4.702c-0.506,0.087-0.292,0.858,0.213,0.771
					c3.182-0.545,5.894-2.363,7.646-5.07C333.332,201.719,332.64,201.317,332.361,201.749L332.361,201.749z"/>
			</g>
		</g>
		<path fill="#E59FFC" d="M291.933,355.783c-2.936,12.773-5.588,24.301-7.646,33.217h23.458c2.208-7.482,5.465-18.564,9.125-31.153
			L291.933,355.783z"/>
		<path fill="#E59FFC" d="M373.144,357.763C372.48,375.958,371.787,389,371.787,389h-24.5v-31.75L373.144,357.763z"/>
		<path fill="#231558" d="M304.787,399c0,0,1.113-3.744,2.958-10h-23.458l-18,10H304.787z"/>
		<polygon fill="#231558" points="347.287,399 385.286,399 371.787,389 347.287,389 		"/>
		<polygon fill="#FFE6E4" points="345.662,350.875 374.787,351.25 373.537,362 346.162,361.375 		"/>
		<polygon fill="#FFE6E4" points="290.287,350.75 319.537,351.75 317.537,362 289.287,360.75 		"/>
		<polygon fill="#795EE0" points="345.662,350.875 374.787,351.25 373.537,362 346.162,361.375 		"/>
		<polygon fill="#795EE0" points="290.287,350.75 319.537,351.75 317.537,362 289.287,360.75 		"/>
		<g>
			<g>
				<path fill="#FFF1F0" d="M339.152,272.921c5.002-1.398,9.695-3.546,14.019-6.425c0.426-0.284,0.026-0.978-0.404-0.69
					c-4.266,2.84-8.891,4.964-13.828,6.344C338.444,272.287,338.655,273.06,339.152,272.921L339.152,272.921z"/>
			</g>
		</g>
		<g>
			<g>
				<path fill="#FFF1F0" d="M278.932,392.88c1.229,0.393,2.362,0.954,3.425,1.684c0.426,0.293,0.826-0.4,0.404-0.69
					c-1.117-0.767-2.326-1.353-3.616-1.764C278.653,391.952,278.442,392.724,278.932,392.88L278.932,392.88z"/>
			</g>
		</g>
		<g>
			<g>
				<path fill="#FFF1F0" d="M281.383,390.981c1.272,0.548,2.497,1.18,3.68,1.899c0.441,0.268,0.843-0.424,0.404-0.691
					c-1.184-0.719-2.408-1.351-3.68-1.898C281.319,390.089,280.911,390.778,281.383,390.981L281.383,390.981z"/>
			</g>
		</g>
		<g>
			<g>
				<path fill="#FFF1F0" d="M284.586,388.892c0.101-3.104-0.426-6.437-1.987-9.169c-0.943-1.652-2.846-3.237-4.726-1.915
					c-4.678,3.287,2.165,10.5,5.807,11.083c0.504,0.081,0.721-0.689,0.213-0.771c-3.021-0.483-10.315-8.608-4.75-9.58
					c1.526-0.267,1.991,0.293,2.765,1.587c0.527,0.883,0.875,1.904,1.169,2.887c0.574,1.918,0.773,3.884,0.708,5.879
					C283.77,389.406,284.569,389.406,284.586,388.892L284.586,388.892z"/>
			</g>
		</g>
		<g>
			<g>
				<path fill="#FFF1F0" d="M284.542,388.666c-4.056-1.6-8.257-3.09-12.636-2c-0.213,0.053-0.331,0.286-0.28,0.492
					c0.414,1.654,2.65,1.695,4.034,1.893c2.789,0.398,5.584,0.361,8.372-0.012c0.503-0.067,0.51-0.868,0-0.8
					c-1.875,0.251-3.749,0.363-5.639,0.271c-1.203-0.059-5.585,0.073-5.995-1.564c-0.093,0.164-0.186,0.328-0.279,0.492
					c4.229-1.052,8.309,0.461,12.211,2C284.808,389.626,285.016,388.854,284.542,388.666L284.542,388.666z"/>
			</g>
		</g>
		<g>
			<g>
				<path fill="#FFF1F0" d="M284.071,389c1.295,0.804,2.272,1.943,2.894,3.333c0.21,0.47,0.899,0.063,0.691-0.403
					c-0.676-1.511-1.776-2.749-3.181-3.621C284.036,388.037,283.634,388.729,284.071,389L284.071,389z"/>
			</g>
		</g>
		<g>
			<g>
				<path fill="#FFF1F0" d="M284.287,388.6c-2.59,0.208-5.128,0.649-7.635,1.337c-0.496,0.136-0.285,0.908,0.213,0.771
					c2.436-0.668,4.903-1.106,7.422-1.308C284.796,389.359,284.801,388.559,284.287,388.6L284.287,388.6z"/>
			</g>
		</g>
		<g>
			<g>
				<path fill="#FFF1F0" d="M375.928,392.109c-1.29,0.411-2.499,0.997-3.616,1.764c-0.422,0.29-0.022,0.983,0.404,0.69
					c1.063-0.729,2.196-1.291,3.424-1.684C376.63,392.725,376.421,391.951,375.928,392.109L375.928,392.109z"/>
			</g>
		</g>
		<g>
			<g>
				<path fill="#FFF1F0" d="M373.286,390.291c-1.271,0.548-2.497,1.18-3.68,1.898c-0.439,0.268-0.038,0.96,0.404,0.691
					c1.183-0.72,2.408-1.352,3.68-1.899C374.162,390.778,373.754,390.089,373.286,390.291L373.286,390.291z"/>
			</g>
		</g>
		<g>
			<g>
				<path fill="#FFF1F0" d="M371.287,388.892c-0.065-1.995,0.134-3.961,0.708-5.879c0.294-0.982,0.642-2.004,1.169-2.887
					c0.773-1.294,1.239-1.854,2.765-1.587c5.566,0.972-1.729,9.097-4.749,9.58c-0.507,0.081-0.292,0.853,0.212,0.771
					c3.644-0.583,10.485-7.796,5.807-11.083c-1.779-1.251-3.617,0.117-4.583,1.684c-1.692,2.742-2.231,6.232-2.129,9.4
					C370.503,389.405,371.304,389.407,371.287,388.892L371.287,388.892z"/>
			</g>
		</g>
		<g>
			<g>
				<path fill="#FFF1F0" d="M370.744,389.438c3.903-1.539,7.981-3.052,12.211-2c-0.093-0.164-0.187-0.328-0.279-0.492
					c-0.41,1.638-4.792,1.506-5.995,1.564c-1.891,0.093-3.765-0.02-5.639-0.271c-0.509-0.068-0.503,0.732,0,0.8
					c2.788,0.373,5.583,0.409,8.373,0.012c1.369-0.195,3.62-0.242,4.033-1.893c0.052-0.206-0.065-0.439-0.279-0.492
					c-4.379-1.089-8.581,0.4-12.637,2C370.058,388.853,370.264,389.627,370.744,389.438L370.744,389.438z"/>
			</g>
		</g>
		<g>
			<g>
				<path fill="#FFF1F0" d="M370.598,388.309c-1.404,0.872-2.505,2.11-3.18,3.621c-0.208,0.466,0.48,0.873,0.69,0.403
					c0.622-1.389,1.599-2.529,2.894-3.333C371.438,388.729,371.037,388.036,370.598,388.309L370.598,388.309z"/>
			</g>
		</g>
		<g>
			<g>
				<path fill="#FFF1F0" d="M370.787,389.4c2.519,0.201,4.986,0.64,7.421,1.308c0.497,0.137,0.71-0.635,0.213-0.771
					c-2.506-0.688-5.045-1.129-7.634-1.337C370.273,388.559,370.276,389.359,370.787,389.4L370.787,389.4z"/>
			</g>
		</g>
		<g>
			<g>
				<path fill="#261F40" d="M296.55,292.354c-0.741-2.486-1.121-5.011-1.139-7.604c-0.003-0.515-0.803-0.516-0.8,0
					c0.019,2.667,0.405,5.261,1.167,7.816C295.925,293.059,296.698,292.85,296.55,292.354L296.55,292.354z"/>
			</g>
		</g>
		<g>
			<g>
				<path fill="#261F40" d="M301.531,281.988c-0.272-2.247-0.545-4.494-0.818-6.741c-0.061-0.505-0.862-0.511-0.8,0
					c0.272,2.247,0.545,4.494,0.817,6.741C300.792,282.493,301.593,282.499,301.531,281.988L301.531,281.988z"/>
			</g>
		</g>
		<g>
			<g>
				<path fill="#261F40" d="M292.884,292.297c-0.969-2.199-1.411-4.653-1.448-7.047c-0.008-0.515-0.808-0.516-0.8,0
					c0.04,2.547,0.528,5.115,1.557,7.451C292.401,293.171,293.09,292.764,292.884,292.297L292.884,292.297z"/>
			</g>
		</g>
		<ellipse fill="#161616" cx="361.216" cy="317.105" rx="6.571" ry="10.104"/>
		
			<ellipse transform="matrix(-0.9916 -0.1295 0.1295 -0.9916 581.7249 672.0432)" fill="#161616" cx="312.716" cy="317.105" rx="6.571" ry="10.105"/>
		<g>
			<path fill="#161616" d="M387.788,196.126c-1.678,1.902-2.475,4.887-1.878,8.017c0.801,4.201,3.834,7.252,7.128,7.455
				c-0.596-3.212-1.546-6.631-2.918-10.265C389.427,199.498,388.643,197.768,387.788,196.126z"/>
			<path fill="#161616" d="M290.453,235.667c0.267-3.935-1.552-7.403-4.296-8.727c-0.507,5.14-0.868,10.721-1.059,16.765
				C287.957,242.73,290.189,239.565,290.453,235.667z"/>
		</g>
		
			<ellipse transform="matrix(-0.6682 -0.744 0.744 -0.6682 433.9786 669.4827)" fill="#ECB9FD" cx="366.281" cy="237.966" rx="3.121" ry="4.318"/>
		
			<ellipse transform="matrix(-0.4891 -0.8723 0.8723 -0.4891 337.2528 682.3876)" fill="#ECB9FD" cx="368.49" cy="242.416" rx="3.121" ry="4.318"/>
		
			<ellipse transform="matrix(-0.4891 -0.8722 0.8722 -0.4891 335.0884 690.1115)" fill="#ECB9FD" cx="369.663" cy="246.916" rx="3.121" ry="4.318"/>
		
			<ellipse transform="matrix(-0.489 -0.8723 0.8723 -0.489 331.282 698.0104)" fill="#ECB9FD" cx="370.084" cy="251.975" rx="2.884" ry="3.923"/>
		<g>
			<g>
				<path fill="#261F40" d="M369.45,238.5c-1.186,1.31-2.683,2.167-4.411,2.53c-0.503,0.106-0.291,0.877,0.212,0.771
					c1.854-0.389,3.494-1.332,4.764-2.736C370.36,238.684,369.796,238.117,369.45,238.5L369.45,238.5z"/>
			</g>
		</g>
		<g>
			<g>
				<path fill="#261F40" d="M371.687,242.97c-1.479,1.449-3.338,2.264-5.407,2.358c-0.513,0.024-0.516,0.824,0,0.8
					c2.276-0.104,4.344-0.998,5.972-2.593C372.621,243.175,372.055,242.609,371.687,242.97L371.687,242.97z"/>
			</g>
		</g>
		<g>
			<g>
				<path fill="#261F40" d="M372.103,248.383c-1.329,1.296-3.051,1.863-4.89,1.654c-0.51-0.058-0.506,0.742,0,0.8
					c2.036,0.231,3.993-0.461,5.456-1.888C373.038,248.589,372.472,248.023,372.103,248.383L372.103,248.383z"/>
			</g>
		</g>
		<path fill="#E59FFC" d="M340.401,167.986l-0.353-2.684c0,0,6.839,1.059,6.525-4.763c-0.546-10.142-0.104-12.92-4.482-15.798
			c-4.378-2.879-14.865,2.142-13.72,10.599l1.342,12.308c0,0,1.655,1.229,4.849,1.382
			C337.91,169.19,340.401,167.986,340.401,167.986z"/>
		
			<ellipse transform="matrix(-0.9995 -0.0319 0.0319 -0.9995 673.2341 319.6138)" fill="#1C0048" cx="339.164" cy="154.442" rx="0.337" ry="0.739"/>
		
			<ellipse transform="matrix(-0.9995 -0.0319 0.0319 -0.9995 683.8452 320.0613)" fill="#1C0048" cx="344.473" cy="154.581" rx="0.337" ry="0.739"/>
		<path fill="#161616" d="M340.275,165.307c0,0-3.224-0.147-5.89-2.064l6.016,4.744L340.275,165.307z"/>
		<g>
			<g>
				<path fill="#161616" d="M341.838,158.48c-0.51,0.122-1.021-0.048-1.329-0.482c-0.17-0.24-0.569-0.01-0.397,0.232
					c0.429,0.605,1.125,0.867,1.849,0.694C342.248,158.855,342.126,158.411,341.838,158.48L341.838,158.48z"/>
			</g>
		</g>
		<path fill="#E59FFC" d="M325.114,156.411c0.185-1.688,1.74-2.911,3.473-2.729c1.733,0.181,2.989,1.697,2.804,3.386
			c-0.185,1.688-1.74,2.911-3.473,2.729C326.185,159.616,324.929,158.1,325.114,156.411z"/>
		<path fill="#161616" d="M331.246,156.818c0.211-1.928,1.986-3.322,3.964-3.115c1.979,0.208,3.411,1.938,3.2,3.865
			s-1.986,3.322-3.964,3.115C332.468,160.475,331.035,158.745,331.246,156.818z"/>
		<g>
			<path fill="#E59FFC" d="M344.849,157.376c0.112-1.018,0.666-1.878,1.449-2.441c0.084,1.58,0.157,3.412,0.275,5.604
				c0.004,0.073-0.006,0.132-0.004,0.203C345.413,160.058,344.696,158.773,344.849,157.376z"/>
			<path fill="#161616" d="M344.849,157.376c0.112-1.018,0.666-1.878,1.449-2.441c0.084,1.58,0.157,3.412,0.275,5.604
				c0.004,0.073-0.006,0.132-0.004,0.203C345.413,160.058,344.696,158.773,344.849,157.376z"/>
		</g>
		
			<ellipse transform="matrix(-0.953 0.3029 -0.3029 -0.953 708.6233 191.7913)" fill="#231558" cx="339.441" cy="150.839" rx="0.9" ry="0.501"/>
		<path fill="#231558" d="M342.875,150.476c-0.091,0.263,0.216,0.602,0.687,0.758c0.47,0.156,0.926,0.069,1.017-0.193
			c0.091-0.262-0.216-0.602-0.687-0.757C343.422,150.126,342.966,150.213,342.875,150.476z"/>
		<g>
			<g>
				<path fill="#161616" d="M327.678,155.633c0.889-0.031,1.682,0.654,1.687,1.563c0.001,0.296,0.461,0.296,0.46,0
					c-0.006-1.151-1.007-2.063-2.146-2.024C327.382,155.183,327.381,155.644,327.678,155.633L327.678,155.633z"/>
			</g>
		</g>
		<g>
			<path fill="#161616" d="M342.943,156.208c0.014-1.065-0.098-2.365-0.298-3.303c-0.104-0.485-0.473-0.613-0.903-0.572
				c-0.621,0.059-0.681,0.389-0.717,0.826c-0.051,0.604-0.048,1.213-0.033,1.82c0.013,0.516-0.052,1.198,0.128,1.688
				c0.164,0.444,0.844,0.483,1.229,0.394c0.403-0.094,0.608-0.422,0.596-0.84"/>
		</g>
		<path fill="#161616" d="M328.571,153.777c-0.819-0.058,0.083-8.257,8.841-9.007c0,0,0.875,3.147-7.172,10.008
			C330.239,154.778,329.37,153.833,328.571,153.777z"/>
		<path fill="#5538C2" d="M337.033,146.905c0,0,5.42-0.943,8.012,4.241c2.592,5.184,0,9.896,4.006,12.018
			c4.006,2.121,7.069-1.414,7.069-1.414s-4.005,0-4.005-2.592c0-2.592,3.534-10.604-3.299-14.845c0,0,1.054-0.313,0.888-1.396
			c0,0-0.888,1.396-5.836-1.903c-4.948-3.299-11.782,1.178-11.546,5.419C332.321,146.433,335.148,145.491,337.033,146.905z"/>
		<path fill="#231558" d="M320.787,230l-2-4.333c0,0,27-2.333,42.333-4l0.667,4.833L320.787,230z"/>
		<path fill="#FFE6E4" d="M335.473,223.664l1.441,6.261c5.415-0.279,11.933-1.141,11.933-1.141l0.399-7.367
			C345.327,222.221,335.473,223.664,335.473,223.664z M336.839,224.551l10.999-0.753l-0.401,3.373l-9.734,1.611l-0.247-1.775
			l6.671-1.185l-7.08-0.05L336.839,224.551z"/>
	</g>
	<g>
		<g>
			<path fill="#231558" d="M483.019,126.983c-0.377-2.348-2.892-3.859-5.269-3.944s-4.646,0.898-6.836,1.824
				s-4.51,1.832-6.876,1.584c-3.311-0.348-6.578-2.909-9.654-1.634c-2.37,0.982-3.308,4.383-1.774,6.441
				c1.002,1.344,2.837,2.187,3.111,3.84c0.264,1.581-1.058,2.921-2.123,4.117c-1.066,1.196-1.979,3.053-0.966,4.296
				c1.59,1.954,6.11,0.106,6.577,2.582c0.095,0.504-0.072,1.02-0.075,1.533c-0.015,1.894,2.147,3.108,4.042,3.125
				c1.894,0.016,3.731-0.715,5.626-0.727c2.614-0.016,5.014,1.318,7.473,2.206c2.459,0.887,5.616,1.861,7.713,0.3
				c2.049-1.526,1.661-3.228,2.299-4.026c1-1.25,3.521-0.98,5.753-1.352c2.233-0.372,4.624-0.852,6.183-2.493
				s1.604-4.843-0.449-5.796c-1.299-0.604-2.919-0.118-4.195-0.767c-2.231-1.134-1.696-4.378-2.139-6.842
				c-0.739-4.115-5.712-6.864-9.59-5.301"/>
		</g>
		<path fill="#E59FFC" d="M449.786,156.333c0,0,21.167-4.833,49.334,0.667c0,0-10.334,16.5-23.334,17
			S449.786,156.333,449.786,156.333z"/>
		<path fill="#E59FFC" d="M494.786,231.5l12,20.5c8.306-4.59,14.318-10.805,18.372-17.934c-9.111-6.866-16.752-11.983-20.786-14.601
			C500.857,227.587,494.786,231.5,494.786,231.5z"/>
		<ellipse fill="#161616" cx="450.549" cy="317.105" rx="6.571" ry="10.104"/>
		<ellipse fill="#161616" cx="501.216" cy="317.105" rx="6.57" ry="10.104"/>
		<path fill="#E59FFC" d="M470.278,155.486l0.353-2.684c0,0-6.839,1.059-6.524-4.763c0.546-10.142,0.104-12.92,4.482-15.798
			c4.378-2.879,14.864,2.142,13.72,10.599l-1.343,12.308c0,0-1.654,1.229-4.849,1.382
			C472.77,156.69,470.278,155.486,470.278,155.486z"/>
		
			<ellipse transform="matrix(0.9995 -0.0319 0.0319 0.9995 -4.2839 15.0983)" fill="#1C0048" cx="471.516" cy="141.942" rx="0.337" ry="0.739"/>
		
			<ellipse transform="matrix(0.9995 -0.0319 0.0319 0.9995 -4.291 14.9291)" fill="#1C0048" cx="466.206" cy="142.081" rx="0.337" ry="0.739"/>
		<path fill="#161616" d="M470.405,152.807c0,0,3.223-0.147,5.89-2.064l-6.017,4.744L470.405,152.807z"/>
		<g>
			<g>
				<path fill="#161616" d="M468.719,146.424c0.724,0.173,1.42-0.088,1.849-0.694c0.172-0.242-0.228-0.472-0.397-0.232
					c-0.307,0.434-0.818,0.604-1.328,0.482C468.554,145.912,468.431,146.355,468.719,146.424L468.719,146.424z"/>
			</g>
		</g>
		<path fill="#E59FFC" d="M485.565,143.911c-0.185-1.688-1.739-2.911-3.473-2.729c-1.733,0.181-2.989,1.697-2.804,3.386
			c0.185,1.688,1.739,2.911,3.473,2.729C484.495,147.116,485.751,145.6,485.565,143.911z"/>
		<path fill="#161616" d="M479.434,144.318c-0.211-1.928-1.985-3.322-3.964-3.115c-1.979,0.208-3.411,1.938-3.2,3.865
			s1.985,3.322,3.964,3.115C478.211,147.975,479.645,146.245,479.434,144.318z"/>
		<g>
			<path fill="#E59FFC" d="M465.83,144.876c-0.111-1.018-0.665-1.878-1.448-2.441c-0.085,1.58-0.157,3.412-0.275,5.604
				c-0.004,0.073,0.006,0.132,0.004,0.203C465.267,147.558,465.983,146.273,465.83,144.876z"/>
			<path fill="#161616" d="M465.83,144.876c-0.111-1.018-0.665-1.878-1.448-2.441c-0.085,1.58-0.157,3.412-0.275,5.604
				c-0.004,0.073,0.006,0.132,0.004,0.203C465.267,147.558,465.983,146.273,465.83,144.876z"/>
		</g>
		<path fill="#231558" d="M472.097,138.611c-0.085,0.264-0.539,0.355-1.013,0.204c-0.474-0.15-0.789-0.486-0.703-0.75
			c0.085-0.264,0.538-0.355,1.012-0.205C471.867,138.012,472.182,138.348,472.097,138.611z"/>
		<path fill="#231558" d="M467.805,137.976c0.091,0.263-0.216,0.602-0.687,0.758s-0.926,0.069-1.017-0.193
			c-0.092-0.262,0.216-0.602,0.686-0.757C467.258,137.626,467.713,137.713,467.805,137.976z"/>
		<g>
			<g>
				<path fill="#161616" d="M483.002,142.673c-1.139-0.039-2.141,0.873-2.146,2.024c-0.002,0.296,0.458,0.296,0.46,0
					c0.005-0.91,0.798-1.594,1.687-1.563C483.298,143.144,483.298,142.683,483.002,142.673L483.002,142.673z"/>
			</g>
		</g>
		<g>
			<path fill="#161616" d="M467.736,143.708c-0.014-1.065,0.098-2.365,0.298-3.303c0.104-0.485,0.473-0.613,0.903-0.572
				c0.62,0.059,0.681,0.389,0.718,0.826c0.051,0.604,0.047,1.213,0.032,1.82c-0.012,0.516,0.053,1.198-0.128,1.688
				c-0.163,0.444-0.844,0.483-1.229,0.394c-0.403-0.094-0.608-0.422-0.597-0.84"/>
		</g>
		<path fill="#FFE6E4" d="M450.286,221c0,0-28.5,59.333-5.5,173.333l-14,7.334h38c0,0-8-98.667,1-135.667l10.667,3
			c0,0,10.333,36.667,3.333,132.667h38l-14-7.334c0.339-1.37,19.334-110-8-172.333L450.286,221z"/>
		<path fill="#231558" d="M444.786,394.333l-14,7.334h38c0,0-1.118-13.798-2.048-33.006c-11.798-0.237-21.073-0.79-26.6-1.192
			C441.375,376.059,442.905,385.01,444.786,394.333z"/>
		<path fill="#231558" d="M485.64,368.729c-0.388,10.102-0.987,21.063-1.854,32.938h38l-14-7.334
			c0.103-0.415,1.919-10.694,3.64-26.54C502.353,368.345,493.681,368.627,485.64,368.729z"/>
		<path fill="#E59FFC" d="M389.12,155.833c0,0-10.334-29,11.166-53l18,11.5c0,0-10.5,10-6.5,27.5L389.12,155.833z"/>
		<path fill="#5538C2" d="M531.786,203.5c-0.98-18.643-9-39.167-32.666-46.5c0,0-8,8.667-24,8.667s-25.334-9.333-25.334-9.333
			s-10.979,0.667-17,0.667c-8,0-18.5-5-21-15.167c0,0-14.666,4.667-22.666,14c0,0,7.666,32.167,52.166,28.667
			c0,0-2.166,7.167,3.167,13.167c0,0,3.667,17.333,5.833,23.333c0,0,23.5,6.667,49.5,1l2-23c0,0,0.852-2.326,2.334-4.667
			c3.174,10.125,2.746,19.366,0.252,25.132c4.034,2.618,11.675,7.735,20.786,14.601C530.377,224.888,532.35,214.194,531.786,203.5z"
			/>
		<path fill="#E59FFC" d="M425.322,108.937c-0.205-2.478-4.063-1.625-5.5-0.559c0,0,10.188-7.157,8.796-9.987
			c-0.789-1.605-2.48-0.741-2.48-0.741s0.958-1.763-0.086-2.938c-1.045-1.175-3.134-0.371-3.134-0.371s0.692-1.378-0.587-2.634
			c-1.088-1.067-3.569,0.086-3.569,0.086s1.069-1.664-1.371-2.569c-2.144-0.795-8.998,6.896-8.998,6.896
			s-12.727,5.743-10.596,13.034l13.989,11.18C411.786,120.333,425.55,111.679,425.322,108.937z"/>
		<g>
			<g>
				<path fill="#261F40" d="M425.71,97.569c-2.321,1.395-4.384,3.114-6.169,5.151c-0.212,0.241,0.141,0.596,0.354,0.354
					c1.757-2.005,3.781-3.7,6.067-5.073C426.237,97.835,425.986,97.403,425.71,97.569L425.71,97.569z"/>
			</g>
		</g>
		<g>
			<g>
				<path fill="#261F40" d="M422.501,94.068c-2.865,1.491-4.946,3.781-7.158,6.081c-0.223,0.232,0.131,0.586,0.354,0.354
					c2.179-2.265,4.231-4.532,7.058-6.002C423.039,94.351,422.787,93.919,422.501,94.068L422.501,94.068z"/>
			</g>
		</g>
		<g>
			<g>
				<path fill="#261F40" d="M418.76,91.57c-2.668,1.487-4.976,3.455-6.859,5.86c-0.196,0.25,0.154,0.606,0.353,0.354
					c1.858-2.372,4.126-4.314,6.759-5.782C419.293,91.845,419.041,91.413,418.76,91.57L418.76,91.57z"/>
			</g>
		</g>
		<g>
			<g>
				<path fill="#261F40" d="M417.079,107.848c-2.534-2.757-6.856-2.286-8.732,0.953c-0.161,0.279,0.271,0.531,0.432,0.252
					c1.717-2.963,5.629-3.374,7.947-0.851C416.943,108.439,417.297,108.085,417.079,107.848L417.079,107.848z"/>
			</g>
		</g>
		<ellipse fill="#161616" cx="447.357" cy="317.105" rx="6.571" ry="10.104"/>
		<ellipse fill="#161616" cx="501.357" cy="317.105" rx="6.571" ry="10.104"/>
		<g>
			<g>
				<path fill="#261F40" d="M472.619,224.487c-0.333,7.006-0.19,14.012,0.43,20.999c0.045,0.509,0.846,0.513,0.8,0
					c-0.619-6.987-0.763-13.993-0.429-20.999C473.444,223.972,472.644,223.973,472.619,224.487L472.619,224.487z"/>
			</g>
		</g>
		<g>
			<g>
				<path fill="#261F40" d="M466.244,264.692c5.879,1.939,11.843,3.58,17.886,4.92c0.502,0.111,0.716-0.659,0.213-0.771
					c-6.043-1.34-12.007-2.98-17.886-4.92C465.967,263.759,465.757,264.531,466.244,264.692L466.244,264.692z"/>
			</g>
		</g>
		<g>
			<g>
				<path fill="#261F40" d="M490.193,223.951c2.406,3.851,7.01,5.688,11.407,4.542c0.498-0.13,0.286-0.901-0.213-0.771
					c-4.041,1.054-8.288-0.629-10.504-4.174C490.611,223.111,489.919,223.513,490.193,223.951L490.193,223.951z"/>
			</g>
		</g>
		<g>
			<g>
				<path fill="#261F40" d="M486.991,226.67c3.372,5.054,9.399,7.647,15.388,6.645c0.507-0.085,0.292-0.856-0.213-0.771
					c-5.614,0.94-11.326-1.545-14.483-6.277C487.397,225.84,486.704,226.24,486.991,226.67L486.991,226.67z"/>
			</g>
		</g>
		<g>
			<g>
				<path fill="#261F40" d="M448.792,228.972c3.362-0.346,6.267-2.268,7.847-5.267c0.239-0.455-0.451-0.86-0.691-0.404
					c-1.439,2.732-4.073,4.553-7.155,4.871C448.285,228.224,448.279,229.024,448.792,228.972L448.792,228.972z"/>
			</g>
		</g>
		<g>
			<g>
				<path fill="#261F40" d="M445.815,234.672c6.521-0.803,12.243-4.653,15.391-10.431c0.246-0.452-0.444-0.856-0.69-0.404
					c-3.002,5.511-8.461,9.267-14.7,10.035C445.312,233.934,445.305,234.735,445.815,234.672L445.815,234.672z"/>
			</g>
		</g>
		<circle fill="#231558" cx="477.536" cy="228" r="2"/>
		<g>
			<path fill="#161616" d="M395.605,153.42c-1.071-4.624-4.835-7.715-8.507-7.076c0.717,5.808,2.021,9.489,2.021,9.489
				s0.738,3.083,3.07,7.233C395.061,161.513,396.561,157.541,395.605,153.42z"/>
			<path fill="#161616" d="M528.78,226.045c-3.263-1.255-7.433,0.621-9.685,4.521c-2.269,3.93-1.786,8.519,0.985,10.697
				c1.944-2.266,3.641-4.67,5.077-7.197C526.617,231.501,527.813,228.814,528.78,226.045z"/>
		</g>
		<circle fill="#FFE6E4" cx="482.786" cy="147.5" r="1.5"/>
		<g>
			<g>
				<path fill="#FFF1F0" d="M442.019,184.571c0.609-2.474,1.982-4.622,4.006-6.177c0.402-0.31,0.004-1.005-0.404-0.691
					c-2.195,1.688-3.71,3.962-4.373,6.656C441.124,184.859,441.896,185.072,442.019,184.571L442.019,184.571z"/>
			</g>
		</g>
		<g>
			<g>
				<path fill="#FFF1F0" d="M440.958,179.327c0.491,0.509,0.982,1.017,1.474,1.525c0.358,0.371,0.923-0.195,0.565-0.565
					c-0.491-0.508-0.982-1.017-1.474-1.525C441.165,178.391,440.6,178.957,440.958,179.327L440.958,179.327z"/>
			</g>
		</g>
		<g>
			<path fill="#231558" d="M465.138,132.839c0.854,1.874,3.499,1.831,5.522,1.446s4.619-0.569,5.63,1.227
				c0.567,1.008,0.358,2.272,0.698,3.378c0.34,1.105,1.898,1.994,2.59,1.066c0.098,1.029,0.195,2.057,0.293,3.085
				c3.863-1.051,7.026-5.3,5.654-9.061c-0.599-1.64-1.925-2.922-3.389-3.875c-5.318-3.463-12.966-2.794-17.603,1.54"/>
		</g>
		<g>
			<g>
				<path fill="#5538C2" d="M453.366,369.106c1.864,7.214,4.021,14.343,6.467,21.381c0.15,0.434,0.748,0.347,0.785-0.106
					c0.58-7.125,1.16-14.251,1.741-21.376c0.041-0.513-0.759-0.511-0.801,0c-0.58,7.125-1.16,14.251-1.74,21.376
					c0.262-0.035,0.523-0.07,0.786-0.106c-2.445-7.038-4.603-14.167-6.467-21.381C454.009,368.396,453.237,368.606,453.366,369.106
					L453.366,369.106z"/>
			</g>
		</g>
		<g>
			<g>
				<path fill="#5538C2" d="M498.906,368.894c-1.864,7.214-4.021,14.343-6.466,21.381c0.262,0.036,0.523,0.071,0.785,0.106
					c-0.58-7.125-1.16-14.251-1.74-21.376c-0.041-0.51-0.842-0.514-0.8,0c0.58,7.125,1.16,14.251,1.74,21.376
					c0.037,0.449,0.634,0.543,0.786,0.106c2.445-7.038,4.602-14.167,6.466-21.381C499.807,368.607,499.035,368.395,498.906,368.894
					L498.906,368.894z"/>
			</g>
		</g>
		<g>
			<g>
				<path fill="#FFF1F0" d="M501.597,181.154c3.958,6.215,2.968,14.695-2.328,19.823c-0.37,0.359,0.195,0.924,0.565,0.565
					c5.543-5.368,6.6-14.282,2.453-20.792C502.012,180.317,501.318,180.718,501.597,181.154L501.597,181.154z"/>
			</g>
		</g>
	</g>
	<g>
		<path fill="#5538C2" d="M114.521,383.83c0-9.032-8.312-40.753-23.728-40.753c-15.416,0-23.728,31.721-23.728,40.753
			s10.623,9.92,23.728,9.92S114.521,392.862,114.521,383.83z"/>
		<g>
			<g>
				<path fill="#FFE6E4" d="M73.586,373.361c12.358,1.409,23.777,7.984,31.201,17.966c0.304,0.408,0.999,0.01,0.691-0.404
					c-7.61-10.232-19.222-16.917-31.892-18.361C73.075,372.503,73.079,373.304,73.586,373.361L73.586,373.361z"/>
			</g>
		</g>
		<g>
			<g>
				<path fill="#FFE6E4" d="M91.185,378.71c4.238-3.336,9.081-5.659,14.326-6.907c0.501-0.119,0.289-0.892-0.212-0.771
					c-5.387,1.282-10.329,3.688-14.679,7.113C90.215,378.462,90.784,379.025,91.185,378.71L91.185,378.71z"/>
			</g>
		</g>
		<g>
			<path fill="#E59FFC" d="M119.935,331.379c-0.822-8.102-4.872-13.816-6.789-16.114c-1.664-2.029-3.928-4.066-4.968-3.503
				c-0.247,0.134-0.388,0.38-0.477,0.631c-0.545-0.39-1.146-0.656-1.66-0.306c-0.382,0.262-0.479,0.69-0.468,1.151
				c-0.519-0.298-1.045-0.526-1.511-0.208c-0.404,0.277-0.536,0.709-0.499,1.199c-0.44-0.113-1.036-0.105-1.405,0.344
				c-0.498,0.607,0.029,1.323,0.881,2.523c0.568,0.802,1.49,2.184,2.303,3.53l-0.019,0.018c2.264,3.439,6.755,14.117-0.801,21.111
				s-19.566,6.342-19.566,6.342l6.592,12.465C113.136,358.716,121.193,343.783,119.935,331.379z"/>
			<path fill="#E59FFC" d="M113.146,315.265c-1.664-2.029-3.928-4.066-4.968-3.503c-0.247,0.134-0.388,0.38-0.477,0.631
				c-0.545-0.39-1.146-0.656-1.66-0.306c-0.382,0.262-0.479,0.69-0.468,1.151c-0.519-0.298-1.045-0.526-1.511-0.208
				c-0.404,0.277-0.536,0.709-0.499,1.199c-0.44-0.113-1.036-0.105-1.405,0.344c-0.498,0.607,0.029,1.323,0.881,2.523
				c0.568,0.802,1.49,2.184,2.303,3.53l-0.019,0.018"/>
			<path fill="#5538C2" d="M113.146,315.265c1.917,2.298,5.967,8.013,6.789,16.114c1.258,12.404-6.799,27.337-28.387,29.184
				l-11.146-12.285c0,0,16.564,0.473,24.121-6.521s3.065-17.672,0.801-21.111L113.146,315.265z"/>
			<g>
				<path fill="#3B0735" d="M105.273,316.269c-0.467-0.753-1.043-1.442-1.709-2.044"/>
				<g>
					<path fill="#3B0735" d="M105.489,316.143c-0.49-0.775-1.073-1.474-1.748-2.095c-0.236-0.217-0.591,0.136-0.354,0.354
						c0.645,0.593,1.201,1.251,1.67,1.992C105.229,316.666,105.662,316.415,105.489,316.143L105.489,316.143z"/>
				</g>
			</g>
			<g>
				<path fill="#3B0735" d="M109.387,314.282c-0.467-0.753-1.043-1.442-1.709-2.043"/>
				<g>
					<path fill="#3B0735" d="M109.603,314.156c-0.49-0.774-1.073-1.474-1.748-2.094c-0.236-0.218-0.591,0.136-0.354,0.354
						c0.645,0.593,1.201,1.252,1.67,1.993C109.343,314.68,109.776,314.43,109.603,314.156L109.603,314.156z"/>
				</g>
			</g>
			<g>
				<path fill="#3B0735" d="M107.21,315.231c-0.467-0.753-1.036-1.451-1.702-2.052"/>
				<g>
					<path fill="#3B0735" d="M107.426,315.105c-0.489-0.775-1.065-1.481-1.741-2.103c-0.236-0.218-0.591,0.135-0.354,0.354
						c0.646,0.594,1.194,1.26,1.663,2.001C107.166,315.629,107.599,315.379,107.426,315.105L107.426,315.105z"/>
				</g>
			</g>
			<path fill="#15142A" d="M119.071,335.222c-1.406,0.411-2.557,2.54-2.571,4.755c-0.011,1.62,0.838,2.909,1.712,3.285
				c0.816-2.218,1.262-4,1.52-5.283c0.16-0.801,0.387-1.862,0.291-2.907C119.781,335.021,119.34,335.143,119.071,335.222z"/>
		</g>
		<g>
			<path fill="#5538C2" d="M65.672,317.108c-1.637,2.836-4.494,8.95-4.185,16.674c0.499,12.472,10.553,25.799,32.131,23.818
				l5.115-13.067c0,0-12.124,2.356-20.569-3.219c-8.444-5.575-5.509-16.912-3.756-20.707l-0.021-0.015"/>
			<path fill="#E59FFC" d="M65.672,317.108c0.089-0.155,0.175-0.301,0.257-0.437c1.358-2.297,3.308-4.707,4.415-4.334
				c0.262,0.088,0.436,0.307,0.56,0.539c0.483-0.481,1.04-0.851,1.596-0.595c0.415,0.191,0.57,0.598,0.624,1.055
				c0.47-0.386,0.957-0.704,1.463-0.472c0.438,0.202,0.629,0.605,0.661,1.097c0.418-0.189,1.008-0.287,1.436,0.092
				c0.577,0.512,0.157,1.312-0.516,2.647c-0.449,0.892-1.165,2.418-1.779,3.892L65.672,317.108z"/>
			<g>
				<path fill="#3B0735" d="M73.844,316.276c0.355-0.825,0.828-1.608,1.4-2.318"/>
				<g>
					<path fill="#3B0735" d="M74.06,316.403c0.358-0.813,0.809-1.572,1.361-2.269c0.198-0.25-0.154-0.606-0.354-0.354
						c-0.58,0.73-1.063,1.515-1.44,2.369C73.5,316.442,73.93,316.697,74.06,316.403L74.06,316.403z"/>
				</g>
			</g>
			<g>
				<path fill="#3B0735" d="M69.638,315.137c0.355-0.826,0.828-1.608,1.401-2.319"/>
				<g>
					<path fill="#3B0735" d="M69.854,315.263c0.358-0.813,0.81-1.571,1.362-2.269c0.198-0.249-0.154-0.605-0.354-0.354
						c-0.58,0.731-1.064,1.516-1.44,2.37C69.293,315.302,69.724,315.557,69.854,315.263L69.854,315.263z"/>
				</g>
			</g>
			<g>
				<path fill="#3B0735" d="M71.785,315.594c0.355-0.826,0.82-1.615,1.393-2.326"/>
				<g>
					<path fill="#3B0735" d="M72.001,315.72c0.357-0.813,0.801-1.577,1.353-2.275c0.198-0.25-0.154-0.605-0.354-0.354
						c-0.58,0.732-1.056,1.521-1.432,2.377C71.441,315.76,71.872,316.015,72.001,315.72L72.001,315.72z"/>
				</g>
			</g>
			<path fill="#15142A" d="M63.491,340.171c1.194-0.835,1.551-3.194,0.797-5.271c-0.551-1.518-1.805-2.451-2.766-2.522
				c-0.183,1.746,0.431,6.398,1.116,8.238C62.886,340.586,63.263,340.33,63.491,340.171z"/>
		</g>
		<g>
			<path fill="#FFE6E4" d="M85.564,343.275c-2.785-0.202-5.604,0.087-8.291,0.85c-0.996,0.282-2.188,0.972-1.991,1.987
				c0.157,0.81,1.106,1.157,1.915,1.32c1.91,0.383,3.863,0.549,5.811,0.491c-1.496,1.149-2.659,2.728-3.313,4.496
				c-0.28,0.757-0.403,1.753,0.242,2.237c0.634,0.476,1.536,0.104,2.21-0.314c1.571-0.975,3.014-2.154,4.281-3.5
				c0.006,2.324,0.442,4.646,1.28,6.814c0.319,0.826,0.731,1.673,1.474,2.154c1.247,0.811,3.533,0.425,4.605-2.435
				c0.522-1.393,0.894-4.111,1.004-7.099c1.216,1.246,2.897,2.025,4.633,2.149c0.783,0.056,1.705-0.097,2.082-0.784
				c0.31-0.564,0.125-1.271-0.149-1.853c-0.606-1.291-1.625-2.383-2.871-3.078c2.627-0.282,5.208-0.986,7.615-2.077
				c0.314-0.143,0.641-0.305,0.83-0.593c0.368-0.563,0.017-1.37-0.558-1.719c-0.575-0.35-1.286-0.363-1.958-0.354
				c-4.546,0.059-9.085,0.673-13.483,1.826"/>
		</g>
		<path fill="#E59FFC" d="M94.26,346.971l-0.315-2.398c0,0,6.11,0.947,5.83-4.256c-0.488-9.062-0.654-10.993-4.859-13.051
			c-3.944-1.931-12.427,0.85-11.404,8.406l1.2,10.997c0,0,1.478,1.098,4.332,1.234C92.034,348.047,94.26,346.971,94.26,346.971z"/>
		
			<ellipse transform="matrix(-0.9995 -0.0308 0.0308 -0.9995 175.9504 672.448)" fill="#1C0048" cx="93.155" cy="334.869" rx="0.301" ry="0.66"/>
		
			<ellipse transform="matrix(-0.9995 -0.0324 0.0324 -0.9995 184.884 672.9845)" fill="#1C0048" cx="97.899" cy="334.993" rx="0.301" ry="0.66"/>
		<path fill="#161616" d="M94.147,344.576c0,0-2.88-0.132-5.263-1.845l5.402,4.394L94.147,344.576z"/>
		<path fill="#E59FFC" d="M80.602,336.628c0.165-1.509,1.555-2.601,3.103-2.438c1.549,0.162,2.671,1.517,2.505,3.026
			c-0.165,1.508-1.554,2.6-3.103,2.438C81.558,339.492,80.437,338.137,80.602,336.628z"/>
		<path fill="#161616" d="M86.248,337.663c0.188-1.723,1.774-2.969,3.542-2.783c1.768,0.185,3.048,1.73,2.859,3.453
			c-0.188,1.722-1.774,2.968-3.542,2.783C87.34,340.931,86.06,339.385,86.248,337.663z"/>
		<g>
			<path fill="#E59FFC" d="M98.235,337.49c0.1-0.909,0.594-1.678,1.294-2.181c0.075,1.411,0.141,3.048,0.246,5.008
				c0.003,0.064-0.005,0.118-0.004,0.181C98.739,339.887,98.098,338.738,98.235,337.49z"/>
			<path fill="#161616" d="M98.235,337.49c0.1-0.909,0.594-1.678,1.294-2.181c0.075,1.411,0.141,3.048,0.246,5.008
				c0.003,0.064-0.005,0.118-0.004,0.181C98.739,339.887,98.098,338.738,98.235,337.49z"/>
		</g>
		<g>
			<g>
				<path fill="#161616" d="M82.892,335.958c0.784-0.023,1.475,0.571,1.482,1.372c0.003,0.296,0.463,0.297,0.46,0
					c-0.011-1.044-0.908-1.863-1.943-1.833C82.597,335.506,82.596,335.967,82.892,335.958L82.892,335.958z"/>
			</g>
		</g>
		<g>
			<path fill="#161616" d="M96.525,336.24c0.061-0.652,0.022-1.443-0.112-2.009c-0.069-0.292-0.391-0.354-0.773-0.309
				c-0.552,0.065-0.621,0.271-0.674,0.539c-0.073,0.372-0.098,0.745-0.113,1.116c-0.013,0.315-0.074,0.583,0.063,0.875
				c0.125,0.264,0.697,0.409,1.042,0.336c0.362-0.076,0.559-0.286,0.567-0.542"/>
		</g>
		<g>
			<path fill="#1C0048" d="M95.148,337.507c-0.448-0.109-0.703-0.47-1.072-0.374c-0.218,0.057-0.388,0.241-0.425,0.459
				c-0.037,0.219,0.039,0.446,0.166,0.634c0.242,0.358,0.65,0.611,1.079,0.685c1.133,0.193,1.623-0.407,1.679-0.772
				c0.039-0.256-0.117-0.519-0.377-0.614C95.946,337.432,95.467,337.584,95.148,337.507z"/>
		</g>
		<g>
			<g>
				<path fill="#161616" d="M93.432,327.984c-0.456-0.637-1.046-1.602-0.05-2.111c0.507-0.26,1.124-0.163,1.673-0.238
					c0.675-0.092,1.251-0.413,1.465-1.085c0.09-0.283-0.354-0.404-0.444-0.122c-0.406,1.272-2.413,0.48-3.292,1.272
					c-0.817,0.735-0.268,1.793,0.25,2.517C93.205,328.456,93.604,328.227,93.432,327.984L93.432,327.984z"/>
			</g>
		</g>
		<g>
			<path fill="#FFE6E4" d="M95.214,337.987c0.21,0.046,0.435-0.169,0.504-0.479c-0.197,0.017-0.405,0.038-0.57-0.002
				c-0.074-0.019-0.136-0.05-0.201-0.078C94.918,337.704,95.023,337.946,95.214,337.987z"/>
		</g>
		<path fill="#FFE6E4" d="M105.324,320.645c0,0,1.153,4.201,2.404,4.201c1.251,0,0.358-3.753,0.358-3.753s2.145,3.217,3.038,2.859
			c0.894-0.357-0.357-4.111-0.357-4.111s2.681,2.86,3.575,2.324c0.894-0.536-0.715-4.29-0.715-4.29s2.502,2.323,3.217,1.787
			s-3.698-4.397-3.698-4.397L105.324,320.645z"/>
		<path fill="#FFE6E4" d="M74.388,320.646c0,0-0.812,4.28-2.059,4.381s-0.658-3.713-0.658-3.713s-1.88,3.379-2.799,3.095
			s0.026-4.126,0.026-4.126s-2.443,3.065-3.377,2.603c-0.934-0.463,0.368-4.333,0.368-4.333s-2.308,2.517-3.063,2.04
			c-0.756-0.478,3.333-4.681,3.333-4.681L74.388,320.646z"/>
	</g>
	<g>
		<ellipse fill="#FFE6E4" cx="629.911" cy="163.781" rx="5" ry="4.906"/>
		<ellipse fill="#161616" cx="629.911" cy="163.781" rx="5" ry="4.906"/>
		<path fill="#E59FFC" d="M581.786,324c0,0,4.5,46.5,20.5,72.5h25c0,0-16.5-36.5-17-69L581.786,324z"/>
		<path opacity="0.3" fill="#231558" d="M581.786,324c0,0,4.5,46.5,20.5,72.5h25c0,0-16.5-36.5-17-69L581.786,324z"/>
		<polygon fill="#231558" points="628.286,399 624.245,389 598.786,389 583.786,399 		"/>
		<path fill="#E59FFC" d="M621.286,324c0,0,4.5,46.5,20.5,72.5h25c0,0-16.5-39-17-71.5L621.286,324z"/>
		<path opacity="0.3" fill="#231558" d="M621.286,324c0,0,4.5,46.5,20.5,72.5h25c0,0-16.5-39-17-71.5L621.286,324z"/>
		<path fill="#231558" d="M561.536,214.5c0,26.165,27.296,43.5,63.125,43.5c35.83,0,63.875-17.585,63.875-43.75
			s-28.045-47.5-63.875-47.5C588.832,166.75,561.536,188.335,561.536,214.5z"/>
		
			<ellipse transform="matrix(0.9485 0.3168 -0.3168 0.9485 79.885 -189.2103)" fill="#FFE6E4" cx="621.72" cy="151.023" rx="13.075" ry="11.998"/>
		
			<ellipse transform="matrix(-0.9879 0.1553 -0.1553 -0.9879 1234.4612 581.9327)" fill="#161616" cx="594.497" cy="339.192" rx="6.57" ry="10.105"/>
		
			<ellipse transform="matrix(-0.9879 0.1553 -0.1553 -0.9879 1316.119 577.5525)" fill="#161616" cx="635.497" cy="340.192" rx="6.57" ry="10.105"/>
		<path fill="#E59FFC" d="M617.077,168.342l0.229-2.697c0,0-6.783,1.373-6.737-4.458c0.079-10.156-0.49-12.911,3.751-15.988
			c4.24-3.077,14.947,1.456,14.192,9.956l-0.774,12.357c0,0-1.596,1.304-4.779,1.604
			C619.621,169.431,617.077,168.342,617.077,168.342z"/>
		
			<ellipse transform="matrix(0.997 -0.0775 0.0775 0.997 -10.1387 48.3537)" fill="#1C0048" cx="617.689" cy="154.755" rx="0.337" ry="0.739"/>
		
			<ellipse transform="matrix(0.9969 -0.0781 0.0781 0.9969 -10.2496 48.3235)" fill="#1C0048" cx="612.392" cy="155.139" rx="0.337" ry="0.739"/>
		<path fill="#161616" d="M617.08,165.66c0,0,3.213-0.296,5.789-2.333l-5.792,5.016L617.08,165.66z"/>
		<g>
			<g>
				<path fill="#161616" d="M615.092,159.359c0.728,0.139,1.417-0.139,1.819-0.766c0.161-0.25-0.237-0.481-0.397-0.232
					c-0.284,0.444-0.78,0.654-1.3,0.555C614.925,158.86,614.801,159.303,615.092,159.359L615.092,159.359z"/>
			</g>
		</g>
		<path fill="#161616" d="M625.771,157.202c-0.3-1.916-2.137-3.227-4.104-2.929s-3.318,2.092-3.02,4.008
			c0.3,1.916,2.137,3.227,4.104,2.929C624.719,160.911,626.07,159.117,625.771,157.202z"/>
		<g>
			<path fill="#E59FFC" d="M612.146,157.948c-0.158-1.012-0.751-1.846-1.56-2.372c-0.012,1.582,0,3.416-0.018,5.611
				c-0.001,0.073,0.012,0.132,0.014,0.203C611.705,160.653,612.362,159.336,612.146,157.948z"/>
			<path fill="#161616" d="M612.146,157.948c-0.158-1.012-0.751-1.846-1.56-2.372c-0.012,1.582,0,3.416-0.018,5.611
				c-0.001,0.073,0.012,0.132,0.014,0.203C611.705,160.653,612.362,159.336,612.146,157.948z"/>
		</g>
		
			<ellipse transform="matrix(0.9693 0.2457 -0.2457 0.9693 55.946 -146.876)" fill="#FFE6E4" cx="616.535" cy="150.749" rx="0.9" ry="0.501"/>
		<path fill="#FFE6E4" d="M614.037,150.627c0.107,0.257-0.179,0.614-0.64,0.798c-0.46,0.183-0.92,0.125-1.026-0.132
			c-0.107-0.256,0.18-0.614,0.64-0.797S613.931,150.371,614.037,150.627z"/>
		<g>
			<path fill="#161616" d="M613.995,156.693c-0.063-1.063-0.012-2.367,0.146-3.313c0.082-0.489,0.444-0.634,0.876-0.613
				c0.623,0.031,0.698,0.357,0.755,0.792c0.079,0.601,0.104,1.209,0.117,1.817c0.011,0.516,0.106,1.194-0.051,1.692
				c-0.144,0.451-0.82,0.521-1.209,0.449c-0.408-0.075-0.627-0.394-0.635-0.812"/>
		</g>
		
			<ellipse transform="matrix(0.999 -0.0454 0.0454 0.999 -6.4202 27.9471)" fill="none" stroke="#130429" stroke-width="0.5909" stroke-miterlimit="10" cx="611.389" cy="155.165" rx="2.165" ry="2.845"/>
		<path fill="none" stroke="#130429" stroke-width="0.5501" stroke-miterlimit="10" d="M616.286,155.333
			c-0.273-0.654-0.866-1.096-1.531-1.065c-0.539,0.025-1.002,0.352-1.271,0.834"/>
		
			<line fill="none" stroke="#130429" stroke-width="0.5408" stroke-linecap="round" stroke-miterlimit="10" x1="621.556" y1="154.702" x2="628.22" y2="153.509"/>
		
			<ellipse transform="matrix(0.999 -0.0454 0.0454 0.999 -6.3928 28.2683)" fill="none" stroke="#130429" stroke-width="0.6531" stroke-miterlimit="10" cx="618.914" cy="154.822" rx="2.645" ry="2.846"/>
		<path fill="#FFE6E4" d="M615.12,146.833c0,0,4.333,5.833,12.333,7l2.333-0.167c0,0,0.167-8.5-10-10.333
			c-10.166-1.833-9,7.667-9,7.667S613.453,149.833,615.12,146.833z"/>
		<path fill="#E59FFC" d="M632.073,155.527c-0.263-1.678-1.872-2.828-3.595-2.566c-1.724,0.261-2.908,1.833-2.646,3.512
			c0.263,1.678,1.872,2.827,3.595,2.566C631.151,158.778,632.336,157.206,632.073,155.527z"/>
		<g>
			<g>
				<path fill="#161616" d="M629.466,154.408c-1.135,0.013-2.109,0.956-2.063,2.11c0.012,0.295,0.473,0.297,0.46,0
					c-0.037-0.904,0.707-1.639,1.603-1.65C629.762,154.865,629.763,154.405,629.466,154.408L629.466,154.408z"/>
			</g>
		</g>
		<path fill="#5538C2" d="M597.536,249.5l-1.25,7c0,0-24,39-13.5,81.5c0,0,28.5,5.5,68.667,1.5c0,0,1.764-26.57,7.5-45.5
			c3.333-11,4.667-28.333,0.333-46L597.536,249.5z"/>
		<g>
			<g>
				<path fill="#FFF1F0" d="M612.449,268.196c3.463,5.025,6.927,10.051,10.39,15.076c0.291,0.421,0.984,0.021,0.691-0.404
					c-3.464-5.025-6.927-10.051-10.391-15.075C612.85,267.371,612.156,267.771,612.449,268.196L612.449,268.196z"/>
			</g>
		</g>
		<g>
			<g>
				<path fill="#FFF1F0" d="M610.5,275.161c1.622,2.364,3.243,4.729,4.864,7.094c0.289,0.422,0.983,0.022,0.69-0.404
					c-1.621-2.364-3.242-4.729-4.863-7.093C610.902,274.335,610.208,274.735,610.5,275.161L610.5,275.161z"/>
			</g>
		</g>
		<g>
			<g>
				<path fill="#FFF1F0" d="M620.526,271.142c0.826,1.172,1.652,2.344,2.479,3.516c0.294,0.417,0.988,0.018,0.69-0.404
					c-0.826-1.172-1.652-2.343-2.479-3.515C620.923,270.32,620.229,270.72,620.526,271.142L620.526,271.142z"/>
			</g>
		</g>
		<g>
			<g>
				<path fill="#FFF1F0" d="M594.555,199.769c-9.142,9.253-6.535,26.146,6.625,29.867c0.497,0.14,0.709-0.631,0.213-0.771
					c-12.588-3.559-14.994-19.702-6.272-28.53C595.482,199.968,594.917,199.402,594.555,199.769L594.555,199.769z"/>
			</g>
		</g>
		<g>
			<g>
				<path fill="#FFF1F0" d="M589.873,199.113c0.379,1.554,1.102,2.947,2.135,4.166c0.334,0.393,0.897-0.175,0.566-0.565
					c-0.946-1.116-1.584-2.394-1.93-3.813C590.522,198.4,589.751,198.612,589.873,199.113L589.873,199.113z"/>
			</g>
		</g>
		<g>
			<g>
				<path fill="#FFF1F0" d="M612.52,262.333c0.016-2.306-0.131-7.229,3.064-7.251c0.209-0.001-0.457-0.108,0.243,0.05
					c0.771,0.175-0.164-0.127,0.374,0.13c0.309,0.147,0.555,0.403,0.769,0.774c0.894,1.558,1.39,3.856,1.691,6.037
					c0.577,4.159,0.659,8.405,0.708,12.596c0.108,9.09,0.227,18.176,0.434,27.265c0.579,25.374,1.296,50.746,2.023,76.116
					c0.184,6.428,0.369,12.855,0.561,19.283c0.091,3.082,4.892,3.095,4.8,0c-0.549-18.496-1.071-36.994-1.571-55.492
					c-0.366-13.549-0.722-27.098-1.029-40.648c-0.235-10.388-0.138-20.81-0.526-31.191c-0.153-4.104-0.363-8.344-1.364-12.346
					c-0.579-2.313-1.542-4.786-3.569-6.203c-1.798-1.257-4.284-1.54-6.328-0.75c-4.481,1.73-5.051,7.5-5.078,11.631
					C607.699,265.423,612.499,265.426,612.52,262.333L612.52,262.333z"/>
			</g>
		</g>
		<path fill="#E59FFC" d="M596.286,254c0,0,14.5,5.5,17.5-0.5c0,0,6.5-0.5,7.5,3s6.25,2.75,4.75-3.75s-5.75-11.25-25.75-13.75
			C600.286,239,597.286,246.5,596.286,254z"/>
		<path fill="#161616" d="M596.286,254c0,0,14.5,5.5,17.5-0.5c0,0,6.5-0.5,7.5,3s6.25,2.75,4.75-3.75s-5.75-11.25-25.75-13.75
			C600.286,239,597.286,246.5,596.286,254z"/>
		<path fill="#E59FFC" d="M627.786,231c0,0-2.5,11-0.5,21.25c0,0-9.5-0.75-15-4.75s-11-2.5-14.5-2.5s-3.5-4.5,0-6.5
			c0,0-3-3.25,0.769-4.916c0,0-0.513-4.278,3.487-4.278c0,0-2.154-3.893,8.994-3.057C621.036,227,627.786,231,627.786,231z"/>
		<g>
			<g>
				<path fill="#161616" d="M597.319,238.843c3.608-0.764,7.271-0.766,10.881-0.007c0.289,0.061,0.412-0.382,0.122-0.443
					c-3.688-0.776-7.438-0.773-11.125,0.007C596.907,238.461,597.029,238.905,597.319,238.843L597.319,238.843z"/>
			</g>
		</g>
		<g>
			<g>
				<path fill="#161616" d="M598.615,233.807c4.368-0.888,8.816-0.785,13.14,0.3c0.288,0.072,0.41-0.372,0.123-0.444
					c-4.403-1.105-8.937-1.205-13.385-0.3C598.203,233.421,598.326,233.865,598.615,233.807L598.615,233.807z"/>
			</g>
		</g>
		<g>
			<g>
				<path fill="#161616" d="M602.042,229.537c3.474-0.349,6.819-0.409,10.212,0.553c0.285,0.081,0.407-0.363,0.122-0.444
					c-3.426-0.971-6.819-0.922-10.334-0.569C601.75,229.106,601.747,229.566,602.042,229.537L602.042,229.537z"/>
			</g>
		</g>
		<g>
			<g>
				<path fill="#FFF1F0" d="M654.754,201.033c4.968,4.808,6.775,13.362,2.688,19.228c-3.088,4.431-8.563,6.799-13.597,8.204
					c-5.223,1.458-10.65,1.986-16.047,2.294c-0.512,0.029-0.515,0.829,0,0.8c6.104-0.349,12.297-0.966,18.133-2.89
					c4.754-1.567,9.698-4.087,12.481-8.422c3.939-6.136,1.988-14.862-3.093-19.779C654.949,200.109,654.383,200.674,654.754,201.033
					L654.754,201.033z"/>
			</g>
		</g>
		<path fill="#231558" d="M627.786,253.5c0,0,16.75,2.75,32-2l3.5-9.5l-36.75-1.5C626.536,240.5,626.786,249,627.786,253.5z"/>
		<g>
			<g>
				<path fill="#FFF1F0" d="M607.565,172.885c9.263,4.258,20.047,4.016,29.103-0.671c0.457-0.237,0.054-0.927-0.403-0.691
					c-8.782,4.546-19.308,4.803-28.295,0.672C607.505,171.98,607.098,172.67,607.565,172.885L607.565,172.885z"/>
			</g>
		</g>
		<g>
			<g>
				<path fill="#FFF1F0" d="M621.107,170.863c0.229,1.539,0.318,3.082,0.285,4.637c-0.012,0.515,0.789,0.515,0.8,0
					c0.035-1.628-0.074-3.239-0.313-4.85C621.803,170.143,621.032,170.359,621.107,170.863L621.107,170.863z"/>
			</g>
		</g>
		<g>
			<g>
				<path fill="#FFF1F0" d="M629.31,170.133c1.301,0.9,2.223,2.186,2.675,3.7c0.147,0.492,0.92,0.282,0.771-0.213
					c-0.515-1.722-1.566-3.156-3.042-4.178C629.289,169.148,628.889,169.841,629.31,170.133L629.31,170.133z"/>
			</g>
		</g>
		<g>
			<g>
				<path fill="#FFF1F0" d="M614.22,169.673c-1.278,1.013-2.162,2.393-2.568,3.971c-0.129,0.499,0.643,0.712,0.771,0.213
					c0.375-1.458,1.184-2.684,2.362-3.618C615.188,169.919,614.619,169.356,614.22,169.673L614.22,169.673z"/>
			</g>
		</g>
		<polygon fill="#231558" points="667.786,399 663.745,389 638.286,389 623.286,399 		"/>
		<g>
			<path fill="#161616" d="M688.527,213.984c-0.158-0.076-0.319-0.146-0.489-0.2c-3.159-1-7.026,2.315-8.639,7.404
				c-1.611,5.09-0.357,10.027,2.802,11.027c0.397,0.126,0.807,0.183,1.221,0.177c3.294-5.396,5.114-11.49,5.114-18.143
				C688.536,214.161,688.528,214.073,688.527,213.984z"/>
			<path fill="#161616" d="M570.915,223.447c-1.382-5.157-5.097-8.642-8.297-7.785c-0.367,0.099-0.709,0.255-1.028,0.454
				c0.294,6.736,2.407,12.862,6.038,18.218C570.824,233.473,572.296,228.601,570.915,223.447z"/>
		</g>
	</g>
</g>
</svg>
